<mxfile host="app.diagrams.net" modified="2024-05-19T15:54:48.045Z" agent="Mozilla/5.0 (Macintosh; Intel Mac OS X 10_15_7) AppleWebKit/605.1.15 (KHTML, like Gecko) Version/17.3 Safari/605.1.15" etag="4MrqFSo1PgGSNftynjBH" version="24.4.2" type="device">
  <diagram name="Страница — 1" id="xEmgllcR3weaRd5ca7ey">
    <mxGraphModel dx="1546" dy="952" grid="1" gridSize="10" guides="1" tooltips="1" connect="1" arrows="1" fold="1" page="1" pageScale="1" pageWidth="827" pageHeight="1169" math="0" shadow="0">
      <root>
        <mxCell id="0" />
        <mxCell id="1" parent="0" />
        <mxCell id="XbhTVfDhAKL3dcxU-6Rh-1" value="" style="shape=image;verticalLabelPosition=bottom;labelBackgroundColor=default;verticalAlign=top;aspect=fixed;imageAspect=0;image=data:image/png,iVBORw0KGgoAAAANSUhEUgAABBgAAAG0CAYAAACYB5RbAAAMPmlDQ1BJQ0MgUHJvZmlsZQAASImVVwdYU8kWnluSkEAIELqU0JsgUgNICaEFkF4EGyEJEEqMCUHFXhYVXLtYwIauiih2QOyInUWxYV8sKCjrYsGuvEkBXfeV753vm3v/+8+Z/5w5d24ZAGgnuWJxPqoFQIGoUJIQHswYlZbOIHUBBAwBdGAAaFyeVMyKi4sG0AbOf7d3N6E3tGvOcq1/9v9X0+YLpDwAkDiIM/lSXgHEBwHAK3liSSEARDlvNalQLMewAV0JTBDiBXKcrcSVcpypxHsVPkkJbIibAVDT4HIl2QBoXoE8o4iXDTU0eyF2FfGFIgBoDIgDCgom8CHOgNge+oghluszM3/Qyf6bZuagJpebPYiVc1GYWohQKs7nTvk/y/G/rSBfNhDDFjaNHElEgnzOsG638iZEybEGxD2izJhYiHUg/iDkK/whRik5sohkpT9qwpOyYc2APsSufG5IFMQmEIeJ8mOiVXxmljCMAzFcIehkYSEnCWJDiBcIpKGJKp9NkgkJqlhoXZaEzVLx57kSRVx5rAeyvGSWSv91joCj0sc0i3OSUiGmQGxdJEyJgVgTYhdpXmKUymdEcQ47ZsBHIkuQ528NcYJAFB6s1MeKsiRhCSr/0gLpwHyxTTlCTowK7y/MSYpQ1gdr5nEV+cO5YFcEIlbygI5AOip6YC58QUiocu5Yl0CUnKjS+SAuDE5QjsUp4vw4lT9uKcgPl/OWEHtIixJVY/GUQrgglfp4lrgwLkmZJ16cy42MU+aDLwXRgA1CAAPIYMsEE0AuELb21PfAK2VPGOACCcgGAuCsYgZGpCp6RPCYCIrBnxAJgHRwXLCiVwCKIP91kFUenUGWordIMSIPPIW4AESBfHgtU4wSDUZLAU8gI/xHdC5sPJhvPmzy/n/PD7DfGRZkolWMbCAigzbgSQwlhhAjiGFEB9wYD8D98Gh4DILNDWfiPgPz+O5PeEpoIzwi3CB0EG6PF86R/JTlSNAB9cNUtcj8sRa4LdT0xINxf6gOlXF93Bg44x4wDgsPhJE9IctW5S2vCuMn7b/N4Ie7ofIju5JRsgE5iGz/80hNR03PQRV5rX+sjzLXzMF6swd7fo7P/qH6fHiO+tkTW4AdwM5hp7AL2FGsHjCwE1gD1oIdk+PB1fVEsboGoiUo8smDOsJ/xBu4s/JKSl1rXLtdvyj7CgWT5e9owJ4gniIRZucUMljwiyBgcEQ8l6EMN1c3DwDk3xfl6+tNvOK7gei3fOfm/gGA/4n+/v4j37nIEwDs84aP/+HvnD0TfjrUATh/mCeTFCk5XH4gwLcEDT5pRsAMWAF7OB834AX8QBAIBZEgFiSBNDAOZp8D17kETALTwGxQAsrAUrAKrAMbwRawA+wG+0E9OApOgbPgErgCboC7cPV0ghegF7wDnxEEISFUhI4YIeaIDeKEuCFMJAAJRaKRBCQNyUCyEREiQ6Yhc5EyZDmyDtmMVCP7kMPIKeQC0obcRh4i3chr5BOKoRqoLmqK2qLDUCbKQqPQJHQsmo1ORIvReehidA1ahe5C69BT6CX0BtqBvkD7MICpY/qYBeaMMTE2FoulY1mYBJuBlWLlWBVWizXC+3wN68B6sI84EafjDNwZruAIPBnn4RPxGfgifB2+A6/Dm/Fr+EO8F/9GoBJMCE4EXwKHMIqQTZhEKCGUE7YRDhHOwGepk/COSCTqE+2I3vBZTCPmEqcSFxHXE/cQTxLbiI+JfSQSyYjkRPInxZK4pEJSCWktaRfpBOkqqZP0QU1dzVzNTS1MLV1NpDZHrVxtp9pxtatqz9Q+k7XINmRfciyZT55CXkLeSm4kXyZ3kj9TtCl2FH9KEiWXMpuyhlJLOUO5R3mjrq5uqe6jHq8uVJ+lvkZ9r/p59YfqHzV0NBw12BpjNGQaizW2a5zUuK3xhkql2lKDqOnUQupiajX1NPUB9YMmXdNFk6PJ15ypWaFZp3lV8yWNTLOhsWjjaMW0ctoB2mVajxZZy1aLrcXVmqFVoXVYq12rT5uuPVw7VrtAe5H2Tu0L2l06JB1bnVAdvs48nS06p3Ue0zG6FZ1N59Hn0rfSz9A7dYm6droc3VzdMt3duq26vXo6eh56KXqT9Sr0jul16GP6tvoc/Xz9Jfr79W/qfzIwNWAZCAwWGtQaXDV4bzjEMMhQYFhquMfwhuEnI4ZRqFGe0TKjeqP7xrixo3G88STjDcZnjHuG6A7xG8IbUjpk/5A7JqiJo0mCyVSTLSYtJn2mZqbhpmLTtaanTXvM9M2CzHLNVpodN+s2p5sHmAvNV5qfMH/O0GOwGPmMNYxmRq+FiUWEhcxis0WrxWdLO8tkyzmWeyzvW1GsmFZZViutmqx6rc2tR1pPs66xvmNDtmHa5Nistjln897WzjbVdr5tvW2XnaEdx67Yrsbunj3VPtB+on2V/XUHogPTIc9hvcMVR9TR0zHHscLxshPq5OUkdFrv1DaUMNRnqGho1dB2Zw1nlnORc43zQxd9l2iXOS71Li+HWQ9LH7Zs2Llh31w9XfNdt7reHa4zPHL4nOGNw1+7Obrx3CrcrrtT3cPcZ7o3uL/ycPIQeGzwuOVJ9xzpOd+zyfOrl7eXxKvWq9vb2jvDu9K7nanLjGMuYp73IfgE+8z0Oerz0dfLt9B3v+9ffs5+eX47/bpG2I0QjNg64rG/pT/Xf7N/RwAjICNgU0BHoEUgN7Aq8FGQVRA/aFvQM5YDK5e1i/Uy2DVYEnwo+D3blz2dfTIECwkPKQ1pDdUJTQ5dF/ogzDIsO6wmrDfcM3xq+MkIQkRUxLKIdo4ph8ep5vRGekdOj2yO0ohKjFoX9SjaMVoS3TgSHRk5csXIezE2MaKY+lgQy4ldEXs/zi5uYtyReGJ8XHxF/NOE4QnTEs4l0hPHJ+5MfJcUnLQk6W6yfbIsuSmFljImpTrlfWpI6vLUjlHDRk0fdSnNOE2Y1pBOSk9J35beNzp09KrRnWM8x5SMuTnWbuzksRfGGY/LH3dsPG08d/yBDEJGasbOjC/cWG4Vty+Tk1mZ2ctj81bzXvCD+Cv53QJ/wXLBsyz/rOVZXdn+2Suyu3MCc8pzeoRs4Trhq9yI3I257/Ni87bn9een5u8pUCvIKDgs0hHliZonmE2YPKFN7CQuEXdM9J24amKvJEqyTYpIx0obCnXhj3yLzF72i+xhUUBRRdGHSSmTDkzWniya3DLFccrCKc+Kw4p/m4pP5U1tmmYxbfa0h9NZ0zfPQGZkzmiaaTVz3szOWeGzdsymzM6b/fsc1znL57ydmzq3cZ7pvFnzHv8S/ktNiWaJpKR9vt/8jQvwBcIFrQvdF65d+K2UX3qxzLWsvOzLIt6ii78O/3XNr/2Lsxa3LvFasmEpcalo6c1lgct2LNdeXrz88YqRK+pWMlaWrny7avyqC+Ue5RtXU1bLVnesiV7TsNZ67dK1X9blrLtREVyxp9KkcmHl+/X89Vc3BG2o3Wi6sWzjp03CTbc2h2+uq7KtKt9C3FK05enWlK3nfmP+Vr3NeFvZtq/bRds7diTsaK72rq7eabJzSQ1aI6vp3jVm15XdIbsbap1rN+/R31O2F+yV7X2+L2Pfzf1R+5sOMA/UHrQ5WHmIfqi0DqmbUtdbn1Pf0ZDW0HY48nBTo1/joSMuR7YftThacUzv2JLjlOPzjvefKD7Rd1J8sudU9qnHTeOb7p4edfp6c3xz65moM+fPhp09fY517sR5//NHL/heOHyRebH+kteluhbPlkO/e/5+qNWrte6y9+WGKz5XGttGtB2/Gnj11LWQa2evc65fuhFzo+1m8s1b7WPaO27xb3Xdzr/96k7Rnc93Z90j3Cu9r3W//IHJg6o/HP7Y0+HVcexhyMOWR4mP7j7mPX7xRPrkS+e8p9Sn5c/Mn1V3uXUd7Q7rvvJ89PPOF+IXn3tK/tT+s/Kl/cuDfwX91dI7qrfzleRV/+tFb4zebH/r8bapL67vwbuCd5/fl34w+rDjI/PjuU+pn559nvSF9GXNV4evjd+ivt3rL+jvF3MlXMWvAAYbmpUFwOvtAFDTAKDD/RlltHL/pzBEuWdVIPCfsHKPqDAvAGrh/3t8D/y7aQdg71a4/YL6tDEAxFEBSPIBqLv7YBvYqyn2lXIjwn3AptivmQWZ4N+Ycs/5Q94/n4Fc1QP8fP4XvON8YKbtB4kAAACKZVhJZk1NACoAAAAIAAQBGgAFAAAAAQAAAD4BGwAFAAAAAQAAAEYBKAADAAAAAQACAACHaQAEAAAAAQAAAE4AAAAAAAAAkAAAAAEAAACQAAAAAQADkoYABwAAABIAAAB4oAIABAAAAAEAAAQYoAMABAAAAAEAAAG0AAAAAEFTQ0lJAAAAU2NyZWVuc2hvdOn7GWsAAAAJcEhZcwAAFiUAABYlAUlSJPAAAAHXaVRYdFhNTDpjb20uYWRvYmUueG1wAAAAAAA8eDp4bXBtZXRhIHhtbG5zOng9ImFkb2JlOm5zOm1ldGEvIiB4OnhtcHRrPSJYTVAgQ29yZSA2LjAuMCI+CiAgIDxyZGY6UkRGIHhtbG5zOnJkZj0iaHR0cDovL3d3dy53My5vcmcvMTk5OS8wMi8yMi1yZGYtc3ludGF4LW5zIyI+CiAgICAgIDxyZGY6RGVzY3JpcHRpb24gcmRmOmFib3V0PSIiCiAgICAgICAgICAgIHhtbG5zOmV4aWY9Imh0dHA6Ly9ucy5hZG9iZS5jb20vZXhpZi8xLjAvIj4KICAgICAgICAgPGV4aWY6UGl4ZWxZRGltZW5zaW9uPjQzNjwvZXhpZjpQaXhlbFlEaW1lbnNpb24+CiAgICAgICAgIDxleGlmOlBpeGVsWERpbWVuc2lvbj4xMDQ4PC9leGlmOlBpeGVsWERpbWVuc2lvbj4KICAgICAgICAgPGV4aWY6VXNlckNvbW1lbnQ+U2NyZWVuc2hvdDwvZXhpZjpVc2VyQ29tbWVudD4KICAgICAgPC9yZGY6RGVzY3JpcHRpb24+CiAgIDwvcmRmOlJERj4KPC94OnhtcG1ldGE+CvKLCRIAAAAcaURPVAAAAAIAAAAAAAAA2gAAACgAAADaAAAA2gAAa6jl0mrEAABAAElEQVR4AeydCfwV0/vHT7RrsaQiKVFIaZcWSpJWkaKSIqQkexKihEokSUpRodAuyZItFGlftWilTcpS2Yr5n8/8/nPNmZm7fe+de2f5nNerZs6ZM+c8533mznfmmec8Ty5NJsFEAiRAAiRAAiRAAiRAAiRAAiRAAiRAAikQyEUFQwr0eCoJkAAJkAAJkAAJkAAJkAAJkAAJkIBOgAoGXggkQAIkQAIkQAIkQAIkQAIkQAIkQAIpE6CCIWWEbIAESIAESIAESIAESIAESIAESIAESIAKBl4DJEACJEACJEACJEACJEACJEACJEACKROggiFlhGyABEiABEiABEiABEiABEiABEiABEiACgZeAyRAAiRAAiRAAiRAAiRAAiRAAiRAAikToIIhZYRsgARIgARIgARIgARIgARIgARIgARIgAoGXgMkQAIkQAIkQAIkQAIkQAIkQAIkQAIpE6CCIWWEbIAESIAESIAESIAESIAESIAESIAESIAKBl4DJEACJEACJEACJEACJEACJEACJEACKROggiFlhGyABEiABEiABEiABEiABEiABEiABEiACgZeAyRAAiRAAiRAAiRAAiRAAiRAAiRAAikToIIhZYRsgARIgARIgARIgARIgARIgARIgARIgAoGXgMkQAIkQAIkQAIkQAIkQAIkQAIkQAIpE6CCIWWEbIAESIAESIAESIAESIAESIAESIAESIAKBl4DJEACJEACJEACJEACJEACJEACJEACKROggiFlhGyABEiABEiABEiABEiABEiABEiABEiACgZeAyRAAiRAAiRAAiRAAiRAAiRAAiRAAikToIIhZYRsgARIgARIgARIgARIgARIgARIgARIgAoGXgMkQAIkQAIkQAIkQAIkQAIkQAIkQAIpE6CCIWWEbIAESIAESIAESIAESIAESIAESIAESIAKBl4DJEACJEACJEACJEACJEACJEACJEACKROggiFlhGyABEiABEiABEiABEiABEiABEiABEiACgZeAyRAAiRAAiRAAiRAAiRAAiRAAiRAAikToIIhZYRsgARIgARIgARIgARIgARIgARIgARIgAoGXgMkQAIkQAIkQAIkQAIkQAIkQAIkQAIpE6CCIWWEbIAESIAESIAESIAESIAESIAESIAESIAKBl4DJEACJEACJEACJEACJEACJEACJEACKROggiFlhGyABEiABEiABEiABEiABEiABEiABEiACgZeAyRAAiRAAiRAAiRAAiRAAiRAAiRAAikToIIhZYRsgARIgARIgARIgARIgARIgARIgARIgAoGXgMkQAIkQAIkQAIkQAIkQAIkQAIkQAIpE6CCIWWEbIAESIAESIAESIAESIAESIAESIAESIAKBl4DJEACJEACJEACJEACJEACJEACJEACKROggiFlhGyABEiABEiABEiABEiABEiABEiABEiACgZeAyRAAiRAAiRAAiRAAiRAAiRAAiRAAikToIIhZYRsgARIgARIgARIgARIgARIgARIgARIgAoGXgMkQAIkQAIkQAIkQAIkQAIkQAIkQAIpE6CCIWWEbIAESIAESIAESIAESIAESIAESIAESIAKBl4DJEACJEACJEACJEACJEACJEACJEACKROggiFlhGyABEiABEiABEiABEiABEiABEiABEiACgZeAyRAAiRAAiRAAiRAAiRAAiRAAiRAAikToIIhZYRsgARIgARIgARIgARIgARIgARIgARIgAoGXgMkQAIkQAIkQAIkQAIkQAIkQAIkQAIpE6CCIWWEbIAESIAESIAESIAESIAESIAESIAESIAKBl4DJEACJEACJEACJEACJEACJEACJEACKROggiFlhGyABEiABEiABEiABEiABEiABEiABEiACgZeAyRAAiRAAiRAAiRAAiRAAiRAAiRAAikToIIhZYRsgARIwA0CO3fuFKtWrRL//vuvG82zTRIgARIgARIgARIgARLIKoHixYuLWrVqZVWGdHdOBUO6ibI9EiCBlAm8/fbb4pprrhF///13ym2xARIgARIgARIgARIgARLwKoG2bduKqVOnelW8pOWigiFpZDyBBEjATQK7du0SlStXFgcOHHCzG7ZNAiRAAiRAAiRAAiRAAp4gsGLFClGlShVPyJKqEFQwpEqQ55MACaSNgKZp4vLLLxfz5s1LW5tsiARIgARIgARIgARIgAS8TGDt2rWiYsWKXhYxYdmoYEgYFSuSAAm4TWDYsGHi3nvvdbsbtk8CJEACJEACJEACJEACniDAJRKemAYKQQIkEDQC69atE9WrVxd//fWXMrThw4eLevXqKWXMkAAJkAAJkAAJkAAJkICfCAwZMkRMmzZNEblEiRJizZo1olixYkq5nzO0YPDz7FF2EggIgSNHjojatWuL5cuXKyPq2LGjmDRpklLGDAmQAAmQAAmQAAmQAAn4icA333yjfzA7evSoIvacOXNEixYtlDK/Z6hg8PsMUn4SCACB3r17i6effloZSalSpcTq1avFCSecoJQzQwIkQAIkQAIkQAIkQAJ+IXD48GFRrVo1sWnTJkXknj17ipEjRyplQchQwRCEWeQYSMDHBL744gvRsGFD8e+//0ZGkStXLvHhhx+Kxo0bR8q4QwIkQAIkQAIkQAIkQAJ+I3DzzTeLl19+WRG7fPnyApEjChYsqJQHIUMFQxBmkWMgAZ8S+O233/SQPNu2bVNGAEePVosGpQIzJEACJEACJEACJEACJOBxAlgC0apVK0XK3LlziwULFogLLrhAKQ9KhgqGoMwkx0ECPiTQqVMnm4+F8847TyxZskTkz5/fhyOiyCRAAiRAAiRAAiRAAiQgxL59+0TlypXF3r17FRyPP/64eOihh5SyIGWoYAjSbHIsJOAjAtOnTxcIy2NOefPmFYsWLRJVq1Y1F3OfBEiABEiABEiABEiABHxFoHXr1mL27NmKzHBqDuuFY489VikPUoYKhiDNJsdCAj4hsHv3bl2ju3//fkViLIvA8ggmEiABEiABEiABEiABEvArgdGjR4sePXoo4h933HG634WzzjpLKQ9ahgqGoM0ox0MCPiDQtGlT8cEHHyiSXnzxxeLTTz8VxxxzjFLODAmQAAmQAAmQAAmQAAn4hcDmzZt1a9xDhw4pIsPRY9euXZWyIGaoYAjirHJMJOBhAsOHDxd33323ImGRIkXEqlWrRJkyZZRyZkiABEiABEiABEiABEjALwT++ecfUb9+ffH1118rIsPRo3W5hFIhQBkqGAI0mRwKCXidwPr160X16tXFH3/8oYg6adIk0bFjR6WMGRIgARIgARIgARIgARLwE4FHH31UPPbYY4rIxYsXF6tXrxbYhiFRwRCGWeYYScADBI4cOSIuvPBCsWzZMkUaOHqcOnWqUsYMCZAACZAACZAACZAACfiJwOLFi0XdunXF0aNHFbFhuWANValUCFiGCoaATSiHQwJeJdCnTx/x1FNPKeKdeuqpukb3xBNPVMqZIQESIAESIAESIAESIAG/EPj9999FtWrVxMaNGxWR4ehx1KhRSlnQM1QwBH2GOT4S8AABhOOBE8d///03Ik2uXLnE+++/L5o0aRIp4w4JkAAJkAAJkAAJkAAJ+I1At27dxNixYxWxES1ixYoVAtEjwpSoYAjTbHOsJJAFAgcPHhRVqlQRW7duVXqHo8dhw4YpZcyQAAmQAAmQAAmQAAmQgJ8IzJ07V7Ro0UIR+dhjjxX4wFa7dm2lPAwZKhjCMMscIwlkkUDnzp3Fa6+9pkhw7rnn6r4Y8ufPr5QzQwIkQAIkQAIkQAIkQAJ+IfDTTz+JSpUqib179yoiw9Fjv379lLKwZKhgCMtMc5wkkAUCM2fOFG3atFF6zpMnj1i0aJG+Tk05wAwJkAAJkAAJkAAJkAAJ+IjAVVddJWbNmqVIfMEFF+jWC7lz51bKw5KhgiEsM81xkkCGCezZs0dUrlxZQLNrTnD02Lt3b3MR90mABEiABEiABEiABEjAVwReeuklceuttyoyFyxYUPe7UL58eaU8TBkqGMI02xwrCWSQQPPmzcV7772n9Fi/fn0xf/58ccwxxyjlzJAACZAACZAACZAACZCAXwhs2bJF9zF26NAhRWQ4erz55puVsrBlqGAI24xzvCSQAQIjRowQd955p9JT4cKFxapVq0TZsmWVcmZIgARIgARIgARIgARIwC8E/vnnHz062sKFCxWR4ehxzpw5SlkYM1QwhHHWOWYScJHAhg0bdP8Kf/zxh9ILHD126tRJKWOGBEiABEiABEiABEiABPxEYMCAAaJ///6KyCeffLJYvXq1KFGihFIexgwVDGGcdY6ZBFwicPToUVGnTh2xZMkSpYerr75aTJs2TSljhgRIgARIgARIgARIgAT8RGDp0qX6s+6RI0cUseHosXXr1kpZWDNUMIR15jluEnCBQN++fcXgwYOVlk855RRdo3vSSScp5cyQAAmQAAmQAAmQAAmQgF8IwDq3WrVqAta65gRHj6NHjzYXhXqfCoZQTz8HTwLpI4B1aBdffLHAujRzev/998Xll19uLuI+CZAACZAACZAACZAACfiKQPfu3cWYMWMUmc8880w9akShQoWU8jBnqGAI8+xz7CSQJgLwoFulShUBj7rmBEePw4cPNxdxnwRIgARIgARIgARIgAR8RQAfzJo1a6bIfOyxx4ovvvhCXzKhHAh5hgqGkF8AHD4JpIPADTfcICZOnKg0dc4554hly5aJAgUKKOXMkAAJkAAJkAAJkIBfCcDf1PTp08WOHTtEu3btGB3LrxOZhNz79+8XlSpVEnv27FHOgqPHRx99VCljRggqGHgVkAAJpEQATm2uuuoqpY08efKIr776StSoUUMpZ4YESIAESIAESMA9Anj57datm8A2XkL46BdeeCFetajH7777boEXr2RSmTJlxMCBA5M5xTN1//77bzFhwgQxZMiQiMUml4F6ZnpcFQTOymfMmKH0UbNmTf1ZN3fu3Eo5M1Qw8BogARJIgcDevXt1je5PP/2ktAJHj3369FHKmCEBEiABEiABEnCXADzc48Un0fTpp5+Khg0bJlo9Uu/HH3/MUTi+66+/Xrz66quRdvywA8d+L730knj66afFDz/8oIhMBYOCI5CZcePGiVtuuUUZW8GCBXUr3bPPPlspZ+Z/BGjBwCuBBEggxwRatGgh5s6dq5xfr149MX/+fIF1aUwkQAIkQAIkQAKZIwDLhe+//1435V63bp2YPXu2mDNnjvj3338dhejQoYOYPHmy47FYhZqmiX379gl8YNi0aZN46qmnBJw9W1PevHnFAw88IFq1aiVOPfVUgYhS+fLls1bzZP7gwYNi1KhRYtiwYQIKFadEBYMTleCUbd26VfcxhmvBnODoEZZCTM4EqGBw5sJSEiCBOARGjhwpevXqpdSCueXKlSvFGWecoZQzQwIkQAIkQAIkkB0CH3/8sWjfvr2uDLBKgJf9nTt36i/+1mPJ5OHkuXz58ooi4/TTTxdTpkwRtWvXTqaprNf9+eefxXPPPSdGjBghsB8rUcEQi46/j0Eph+hoCxYsUAYCR4/Wj2tKBWbog4HXAAmQQPIENm7cqMcB/v3335WT4eixc+fOShkzJEACJEACJEAC2SUAT/d4WXJKzzzzjLjnnnucDiVVhmhSq1at0s+BFSMsKCpUqJBUG9muvGvXLgEn1dYv1tHkooIhGhn/l8NXyCOPPKIMpFixYmL16tWiZMmSSjkzKgFaMKg8mCMBEohDAOaXdevWFYsXL1ZqwtGj1QGOUoEZEiABEiABEiCBrBEoXbq0zYcAhMEL9bfffpuyXKeddppuDYGG8LHBGl0q5Q4y0AC+Wrds2VKceeaZ4sYbbxTnnXeeePvtt8W1117r2DsVDI5YfF+IKGgXXnihOHLkiDKWmTNniiuvvFIpY8ZOgAoGOxOWkAAJxCDw0EMPiSeffFKpAU0uNLrQ7DKRAAmQAAmQAAl4iwAsD2M5pIPvpGgWDomMZPfu3bqPBaPu119/7bulEYbsTlunKAKoRwWDEy1/l8GpJ6KgWZVucPQIZ59M8QlQwRCfEWuQAAn8PwE8MNSvX1/8888/ChOsRcOaNCYSIAESIAESIAHvERg+fLhAWMlo6brrrhOvv/56tMNxy9966y3dzwMqwvfC9u3b457jpwqIING7d2+byFQw2JD4vuC2224TL774ojKOcuXK6T7GChUqpJQz40yACgZnLiwlARKwEDh8+LDuSXfz5s3KETh6hCMkJhIgARIgARIgAW8SaNKkiZg3b15U4fLnz68vbzjxxBOj1ol14NZbb4183YU/B/h1CFJ68803BSJuWBMVDFYi/s5/8MEH+gczREkxEvyJfP755/ryYKOM29gEqGCIzYdHSYAE/p9A165dxfjx4xUeMLfEOjXEA2YiARIgARIgARLwHgF8IEB4yL/++kv/e33JJZeId9991yYorBzuvPNOW3kiBbBaQHhMpFSXWyTSX6brvPPOO+KKK66wdUsFgw2Jbwv2798vKleuLLDcx5zg6HHAgAHmIu7HIUAFQxxAPEwCJCD0ONqtW7dWUOTOnVt89dVXombNmko5MyRAAiRAAiRAAt4hYH45btGiha5EgEWDNcGh4Zo1a6zFcfM4By9mSEWLFtXDYeIZIUgJX7abNm1qGxIVDDYkvi1o27atmD59uiI/fDHgWTdPnjxKOTOxCVDBEJsPj5JA6An8+OOPolKlSmLfvn0KCzh67Nu3r1LGDAmQAAmQAAmQgLcI9OjRQ4wePVoX6oUXXhDII0rC1q1bbYJ++eWXol69erbyWAVPPfWU6NOnj16lXbt2YsqUKbGq+/LYJ598Ii699FKb7FQw2JD4suCVV14RN910kyJ7gQIFdCtdRFlhSo4AFQzJ8WJtEggdgVatWok5c+Yo465Tp45ATG2sS2MiARIgARIgARLwLoGyZctGnC5u2bJFnHHGGXo0KESFsqachJds2LChviwCbeFFDeEdg5awBr9Bgwa2YVHBYEPiu4Jt27bpPsZ+++03RXY4euzevbtSxkxiBKhgSIwTa5FAKAmMGjVK9OzZUxk7POiuWLFC//qhHGCGBEiABEiABEjAUwTWrVsnsPQBCV9ijdB7WGcOvwlHjx5V5MVX2127donjjz9eKY+W+fXXX/UQ1WgnV65c+rkIXR20hI8qTmE8qWDw90z/+++/AgoyzK85YTnMe++9Zy7ifhIEqGBIAharkkCYCGzatElUq1ZNwDmUOcHR4w033GAu4j4JkAAJkAAJkIAHCZjDK1qjO7Rp00bMnDnTJjUiQyFCVCJp2rRpAssikKpXry6WLl2ayGm+q0MFg++mLCGBn3jiCfHwww8rdeEQdfXq1eKUU05RyplJnAAVDImzYk0SCA0BfImoX7++WLRokTJmOHqcNWuWUsYMCZAACZAACZCANwk0atRIfPrpp7pwH330keJHAF/fmzVrZhMcDhtXrVplK3cqwLp1LItAwovawIEDnar5vowKBt9PoW0Ay5cvF7Vr1xZHjhxRjsHRI5RvTDknQAVDztnxTBIILIF+/fqJxx9/XBlfiRIldI3uySefrJQzQwKZJoD41OvXrxfnnntuprtmfyRAAiQQIbBz506BZYOInODFhDXlxYoV01+gICfC8OXNmzciKszDy5UrF/HPEDkgd+A5/8ILLzQX2fZxLy5VqlQkrN+CBQtE3bp1bfWCUEAFQxBm8b8x/PnnnwIRIrCEyJygMBs3bpy5iPs5IEAFQw6g8RQSCDIBWC3AesG6LhOOHhHeiokEskXgjz/+EBMnThTPPvusHs8djpmYSIAESCBbBKCMHzlypLj33nv10I+FCxfOliiO/WL5g/ElNpoFIj4mYBzWBEeNhmWC9ZiRxxdgLItAOvHEEwWiTgXV+TMVDMasB2N7++23C0RUMSc4P125cqXw2u/YLKNf9qlg8MtMUU4SyAAB+FuA3wX4XzAnOHrEQxQTCWSLwNq1a8WVV14pvvvuO12EMmXKCCoYsjUb7JcESAAEzNZ+WLc9dOhQT0VQuOWWWyJfY8eMGSO6detmmzhYYeB++s8//yjHChYsqDtsjGWdYV6/3qFDBzF58mSljSBlqGAIzmzOmzdPXH755QIWOEY65phj9Ego+MDGlDoBKhhSZ8gWSCAwBG6++Wbx8ssvK+OpUKGCwFcKPGwwkUA2CGA9JByLHjp0KNI9FQwRFNwhARLIEgGzgsEQ4amnnhK9e/c2slndnnbaaQIKBKQdO3aI0qVLO8oD64bZs2fbjuEL72233WYrNwrq1asnFi5cqGdfe+010alTJ+NQ4LZUMARjSg8cOCDgYwSRUswpyP5DzOPM1D4VDJkizX5IwOMEsASiVatWipS5c+fWHx5q1aqllDNDApki8M477+iWC1grbE5UMJhpcJ8ESCAbBPr37y8GDBhg6xqKh8cee8xWnskCOGmsUqWK3mWlSpV0H0rR+n/33XdFy5YtbYerVq2qf2CwHZAFeFErXry4bvmAr7979uwRQfbRRAWD01Xgv7JrrrlGTJ06VREcy3y+/vprkSdPHqWcmZwToIIh5+x4JgkEhsC+ffsEHkCwftKcsDbzoYceMhdxnwQyRgDLIurUqSMOHjyo9ImH2CFDhnjKFFkRkBkSIIFQEMCyQqzlnjBhgm282bZkGDx4sOjbt68u1/3336/fM21C/n8Blkdg/fn3339vqwK/TBdccIGt/I033hAdO3bUy3HcGnXKdoLPC6hg8PkESvHxO4VvEXMqUKCAHlqVTqPNVFLfp4IhdYZsgQR8T8DJPBLeo7/88svAOmzy/aQFfAC//PKL7uF5y5Ytykivu+463R/I8ccfr5QzQwIkQALZIoDlAV27dlWcI+fLl08sW7ZMVKxYMStiNWjQQHz++ed63whT2bBhw5hywBIDFhnWFM2r/vXXXy9ef/11vTrOe/TRR62nBipPBYO/p3P79u3i/PPPF4isYk7xlgGZ63I/cQJUMCTOijVJIJAERo8eLXr06KGM7bjjjhMrVqwQZ511llLODAlkisAdd9whnn/+eaW77t27i1GjRolcuXIp5cyQAAmQQLYJQMnQpUsXxXEclhci3GOmIytAQQtLL0SDKlKkiPjpp5/imn/DegFWDFZnj3ge2L17t+JZH0vWSpYsKWD9iPTNN9+InCyl/Pnnn/UlJr///ntWpg9r8Xv16pVQ31QwJITJk5VwvV5yySURhZshZJMmTcT777/PZwoDSDq30oMmEwmQQEgJyGgRmnx4gBtd5Z909BhSIhy2FwisXr1ak/4/lGtSmuJ6QTTKQAIkQAJRCcgoEsp9C39bn3zyyaj13TowZcqUiBxXX311wt1IPwyR88zPBfJDhNKGXA4RqScVGZp8gVOOJ5pZunRppB1zf5nab968eaKiatIaxFFW+YKacBusmB0C+A1arykZVlWTDlCzI1AIeqUFg7zimEggjATwlQLheODYxpzg6NHJm7S5DvdJwE0CjRo1EjDpNVKpUqXEmjVrBJdFGES4JQES8CIB+d6gfymdP39+RDwslcBSr1NPPTVS5vYO1pkbfiHGjRsnsMwhkQSnuldccYWtKpzgSWVApNzs3BJLJV599dXIsWR2sISkRo0ayZyS1rpSwSDg4DKRRAuGRCh5r87KlSt1HyJ///23IhwcPbZt21YpYyZ9BKhgSB9LtkQCviKA9ZJWL9fwCC2/HuueoX01GAobGAIffPCBaNq0qTKeuXPnimbNmillzJAACZCAFwls2LBBj97w119/RcTr06ePgNPFTCQoOaDMQFQHJISpTFS5gQ8PiNBjhLY0y7tkyZKIMgBOHRcvXqwfhrPH9u3bm6smvI9IF40bN064frorou/Jkycn1CwVDAlh8lSlP//8U9SsWVPAYbQ5QQH3yiuvmIu4n2YCVDCkGSibIwE/EMCDQd26dRWHVJAbXy+cQlX5YUyUMRgEoEjAmkgj4TpdsGCBkeWWBEiABDxPAFEb5HKJiJywvtqxY4fixyByMM07ZquAWGEmo3X7yCOPiIEDB9oOd+vWTYwZM0aPNgX/C1BkwLcEok9Jc3Nb/aAVUMHgvxl18uVUtmxZAasG+CZhco8AFQzusWXLJOBJAnCmVK1aNbFx40ZFPjh6hAM9JhLIFoH169frHtfx4GqkmTNniiuvvNLIcksCJEACSRGAo8Pp06frL/jt2rUTeMFwOzk5TBw2bJi4++673e5aILx0v3799H4QplKuP0+qT3jbL1eunIBjPHMqXLiw2LVrl5gxY4buzBLHwqQApoLBfDV4f//jjz8Wl112meJ09ZhjjhGfffaZuOiii7w/AJ9LSAWDzyeQ4pNAsgTwFWLs2LHKaYgWgagR8BbNRALZIgAlF6KaGOnMM8/UFWF4KGAiAb8QOHjwoLj99tuVB9tosmP9+Z133hntcNrKYSqMl9vDhw/HbbNz585ZNVuPK2CCFbDmGn4IhgwZovtAwGmwjrr88ssTbCG1alBmTJs2LdLI6aefLjZv3iykA9tImRs79erVEwsXLtSbxksxfC0lm+Cb4L333rOd9tJLLwm8uL311lv6MSgzHnroIVu9IBZQweCfWUV0EkQIsS71efDBB8UTTzzhn4H4WVL5pYiJBEggJASkMyObJ11465eOHkNCgMP0KgFpWWOLaCJfiLwqLuUigagE5s2bZ7vPyudEx7LatWtHbSedB6TyzrF/J7mS8ayfThnT1RbuJcOHD9dOO+0025gz6fEffVn5yq//6RqmYzsyHKUmly3o/Z5wwgmatN5wrBevUFqO2WTHWKT1o4Z2jXHJ5RjxmgrMcUaR8M9UXnvttZFr1LhW5XIhTfpF8c8gfC4pLRjklcdEAmEggHjV0Oju3btXGS4cPRrmlMoBZkgggwSwFKJNmzZKj/QJouBgxicEjhw5on8x37Ztm5Dh/PR16zAtd0pwvmf9yuZUL5WyWbNmiauuuipqE3CC1rNnTwGLIRlyUGB9vR8jtsByBMv8sBQBfgGcUiYtGLAcERxxPRhJhtsVkyZNMrJp38LhIvpAki9Z4s0338xRH1hWAouL3bt3Rz3/lFNO0a/dXLlyRa0TpAO0YPDHbCKiSZcuXRRh8+fPr0dBqVixolLOjIsEfK4gofgkQAIJEmjdurVNoys9QWvy4SfBFliNBNwjcN111ynXJ77C/frrr+51yJZJIEME8FW5QYMGyvUtH+v0vFz+o0lTftckkb4ANMR7N/qzbq+++moNX/z9nA4cOKDJqEjKl3XrOI18Ji0YwFT6KFDYS8dyrn5FNd9H5fKQlKZVLn1QZDcYGlvpiT+l9v12Mi0YvD9j0n+IVrRoUdt1+/zzz3tf+IBJSAsGeadkIoGgE8C6yVtvvVUZJvwtLF++XJQvX14pZ4YEMk0Aa6Xx5fS3336LdC1Nx4VcuhPJc4cE/Ezg2WefFffcc4/jELZu3eqK40GEHGzUqJGQL0aO/eLe/+233+qRABwr+KAQliHnnHOOgPVCIimTFgyQB2u+Bw0apIgmlyoK+DhId8J9FKGmpWJWbzqZ8JROsuC6hFWLfO9xOiymTp0q2rZt63gsiIXz588XDRs2tA0NviqsoZVtlVjgOgE4Jb300kt1J47mzhCK9MMPPxRhsbQxjz2r+wFTmHA4JEACFgLSqZRWqFAhm0ZXOnq01GSWBLJDwMk3iPR+nh1h2CsJuEBAPvja7sHy4U8vky8uLvSoaf3794/aJ/qeOHGiK/1mslGpRNFkaFtNOtXUli5dqklnlpp0QBh13Jm2YEB/xjwb265du7qCaM6cOZG+pGIgLX1Ih5iRNg35sYXvpl9++SUtffilkQ8++MCRxdtvv+2XIQRazsGDB9vmB/5Cfvjhh0CP26uDg2aSiQRIIKAE4OCpTp06tptuy5YtAzpiDsuPBPDAbX54xT4c5TGRQBAIYKlPnjx5bNe4cc2//vrraR8mzLkNZ39GP+attGDz/dKIWNCkPxdH3plWMEjLCv1l3Mz+pJNOcmVp4vXXXx8Zs4wEEgtPwsdkFIxIm+YxYMlP2NLs2bMdWUyZMiVsKDw33pUrV2p58+a1zQ+UjUzZIUAFQ3a4s1cSyAgBpy9Y0hRd27NnT0b6ZyckkAiBUqVKKQ8GeFDw+7rwRMbNOuEgEO0lzXhhe/LJJ9MKAj4JSpcurfymjL6MLbysBzkNHTrUcfyZVjCAMXwdGdyNbbojN8HXhvkFCz4p0pHgH6REiRI2+fG1OGwJPi2M+TNvpWPRsKHw1HhhtSQdmNvmRjp69JScYROGCoawzTjHGxoCixcvtn05wR9FmvOF5hLwxUB37NhhezA444wzfCE7hSSBRAjAGZ75hcS6371790SaSbhOtK/35n7l+vmE2/NjRRlNwZF5NhQMvXr1ssmCMJrpSnDU3L59e6WPK664Il3Naw888IDSNq6jVatWpa19vzQULdRrp06d/DKEQMp555132q5PGQEldEt4vDa5VDB4bUYoDwmkgcDhw4e1s88+23bTlY4e09A6myCB9BGAean5xQf7Mmxe+jpgSySQRQLS8ZjjF2DzNd+iRYu0Sfjiiy/afk/mvrCPL93SoWra+vRiQ9HM2bOhYBg4cKBtTqAQSEeSoVC1evXq2dpHdBIZojItEUq+++47TTrIi/Rx2mmnpUN037Tx119/aVAImRlYf1NPPPGE9scff/hmTEER9OOPP7bNC679zz77LChD9O04qGDw7dRRcBKITgCKBOsfQDh9wnpQJhLwEgHpWd92rcKxGBMJBIHAN998E7m+YSqfL1++SN64R8O8Nx1p9erVWoECBSLtly1bNrJv9IUtHE4GPUGRYB6zsZ8NBQNM6I3+jS3mJqfpkUce0erXr6/hb7rRXrRt/vz5tXPPPVeTUUxy2p1+nvTEH+mrW7duKbXlh5OhoIKfifPPP1/5TUXjjHKwxm8Z53300Ud+GKavZfz5558dl4LB4oYp+wSoYMj+HFACEkgrgblz50YeBIw/hnD29dVXX6W1HzZGAukgYI0Tj2u2Y8eO6WiabZBA1glgLbxxHx4wYIB21llnRfJG+fHHH5+ynPBZUqlSpUjbUNIhuoLRh3mb6stmysJmoAF82TSP2djPhoIBlgRG/+ZtTn0hOSmpzO067ac652ZLs5kzZ2ZgBrPbxYgRIxznzImtU9n48eOzO4AQ9N6hQwfbHFWpUkWDxQlT9gnkggjyx8FEAiQQAAI//fSTkBp0IR9clNFIZ49CPugqZcyQQLYJIG570aJFhXTSpIgi1ywL+YCnlDFDAn4kIJf7CBk+URd9yZIl4v777xeffPKJbShyyYIoXLiwrTzRArk+XIwePVqvXrx4cbFo0SJRsWJFIc22bU1s3LhRlC9f3lYepAIZRUPIL8m2IUkFg5DKF1u5mwXya7a47LLLbF1If0hC+kqwlXuxAPdqPFtIK0iB60eGvvaimJQpJARk5B0ho6Yoo5WKN4F7rFS0KuXMZIcAFQzZ4c5eScAVAtK5l5BfF5S2a9WqJRYuXChk3GqlnBkSyDYBGVpKVK1a1SaG/NIrpBmwrZwFJOAnArt37xYyQgosRUXJkiXFrl27hHT4KCZOnGgbxtq1a3WFgO1AAgUzZswQV199tV5TrhMX0opN35cWDLazK1SoIDZs2GArD1rBF198IS6++GLbsLKhYFi2bJmoUaOGTRbe52xIWEACcQnIiClCLl0Rv/zyi1L3ueeeE3fccYdSxkwWCWTfiIISkAAJpIPA2LFjbeZiBQsW1OTDZDqaZxskkHYCMLWVf/5s/0aOHJn2vtggCWSawLhx4yLXNiJJIPXr1y9SZr7233vvvRyJhygsJ5xwQqTNu+++W2/HKXIB+jOO56gzH50kLRgiTMycs7FEAo4YzTIY+8Y14SOsFJUEskoATnMbNWpk+z3BrwyOMXmHAC0Y5J2eiQT8TmDr1q1Crj3TzRfNYxkzZoyQDpnMRdwnAc8QkJ65hXzhsckzefJkIddX2spZQAJ+ImC2KJs2bZpuZSCVDuKWW26xDSMn9+p//vlHXHLJJQJf65GqV68upK8dIaNECOnrQWzevNnWj/RNIOQDuq08aAVesmA4dOiQ4/IXzJ3TcpmgzQXHQwLpIjB06FB9mZm5PalgFTJsqpDRTczF3M8yASoYsjwB7J4EUiWAh0ysNV2wYIHSVPPmzcW7776rlDFDAl4icNdddwmYNVqT8TJmLWeeBPxCQDoaE8WKFRN4ucyTJ4+Af5wiRYqIDz/80NEHwMMPPyxkOMOkhgffOjCzRzruuOMETPGxBGLTpk361toY+occkCfoyUsKBrDG0hVrOuOMM8SWLVusxcyTAAk4EJBRcgSW/OLeak5vvPGGkGFfzUXc9wABKhg8MAkUgQRSIYCHUut6dTzYrlmzRpQoUSKVpnkuCbhK4MorrxRwdGZN0uu6uPbaa63FWc0fPXpUtxDC1xKm7BKQRqBi//79+gt8diWJ3vu8efNEkyZN9ArmL9Xffvuto6+Fzp07O/pmiNYDnBjCEgEKZqRXXnlF9++AfSjtoLyzprZt24qpU6daiwOZ95KCAXPk5AMJZXBwK6M8BXIOOCgSSBcBKBVkmF/dUsHcJhw9vvrqq+Yi7nuFgHdWa1ASEiCBZAlI7+Sa/BplW48WhjBSybJife8RQEgp+bfQ9u+1117zhLBSqaAh3B3ivp900kka5GXKPgH5Aq0h9K70zK+9/PLLmnT2lX2hLBLceeedketamvVGjkqLhki5+dqXSohInXg7UrmiSXPgSDtSGaecghCV5raN/TCFzvOSDwapRHCcD8zL9u3blbljhgRIwE4AvmOM+5ixLV26tCfv/Xbpw1lCCwZ5pTKRgB8JIPwY1tyuX79eER/re1966SWljBkS8CIBWANYPUFDTly/TuvUMzkGmGPiq/KKFSsi3SIiwA8//BDJcyc7BGCxZV5OAIutZ599VnTq1Ck7Ajn0ijCQ3333nX5k3bp14txzz43UksoqceDAgUgeO2eeeWakvnLAIXPVVVeJWbNm6UfKli2rX6MI94r0+++/ixNPPNFmRgwTfYQvRgjLMCQvWTD8+uuv4vjjj3fEDjnr16/veIyFJEACQnz22We6tZZ8TY/gwP0M/mRgHcbkUQLh1Ktw1CTgfwIy7rlNo1uuXDlNxqn2/+A4gsATgMdn+ZBgu4bln0pNvixmbfywWnjyySc16SjPJhu+GjNlnwAsAnCdWP/hy70MYZZ1AaXSNyKbXGdvk0eGZo0cN8YgY7gn5AV91KhRkXOlib0mQxAr7b/zzjuR40bb2ErzYqVe0DNesmDYuXOn45xgXubMmRP0qeD4SCDHBGCddvrpp9t+P/fff3+O2+SJmSGA+MxMJEACPiOAUFvmh0fsw2RYOnr02UgoblgJHD582HYNG9f0E088kRUscp2n1rRpU5tcUITADF2un8+KXOzUTmDSpElayZIlbXOFh1EZVcd+QgZLnnnmmYhcPXv2tPXcqlWryHHjmsdWWhjY6poLpKd0LX/+/JFzpRWH+bC+f9ttt0WOm9uWziBtdYNc4CUFw8aNGx3nBPMzZcqUIE8Dx0YCKRG47rrrbL+d888/X8OyIyZvE6CCwdvzQ+lIwEZAegHXTjnlFNtNV5oN2+qygAS8SmDfvn22a9h4Ierbt2/GxYblwtVXX22TSTqi1FauXJlxedhhfALS9FyDrwMoV41rB1u5bEDbtm1b/AZcqgF/CoY8MpKPrRcoHYzj5u3ixYttdY0CufRBO++88yLnychBmnQeaByObDF2c5vGPvz1hCl5ScGwfPlyxznB3EyYMCFM08KxkkDCBKBENu5fxhaWXlC0MnmfAH0wyKuWiQT8RACewKdPn66IXKNGDT3+eRjCjykDZ8a3BHbs2CHKlCnjKL9c/iOkKbjjMbcK4fNh3LhxSvOQAbIweZuAfDHX1+giJKSREAJwyZIluj8CoywTW6y3P/nkk8WRI0dEgQIF9GgX2JrTU089Jfr06WMu0vdxX2/Tpo2tHAXdu3cXY8aM0Y/Bx4JUetnivkeLUCEV0kKa6TuGSnTsLEbhzz//rIfGhK+HbKTKlSuLXr16xe3aSz4Y5s+fLxo2bOgoM+8xjlhYGHIC8HUkLRUE7jfmBF87ThFyzHW47xEC3teBUEISIAGDADymy1uH8k8+vGpY88tEAn4iIB3fKdex+bru0KFDRocCM2Vz/9iHjxMm/xCQoU1tc9ixY8eMD0CGgYzI0aJFC8f+Zdz2SB3zdRfN98i0adOU+tGiBJmXZpjbvfnmmx3lyEkhLCHMbWd6v3nz5gmJ7SULBhmKNyqzp59+OqHxsBIJhIUA/DNdeumltt8MLMNwjMkfBLhEwh/zRClJQF9XXLhwYdtN98UXXyQdEvAdAfl12XYtGy8rib5EpGPQP/74oya/OCuyyK+NmvwCnY7m2UYGCZhDQxrXkrQKyKAEmtalS5fItfTCCy849v3ll19G6hhyYnvPPffY6iOMoYy2EqkfS/Hl9FCOdqMpJGydJVBABUMCkCxVJk6cGJk/83xj/7HHHrPUZpYEwk0ASjfr70RGYdGk1WO4wfhs9FwiIa9iJhLwOgGptRVyza2QD6aKqNIhnXjvvfeUMmZIwA8EcC1fdNFFjqLWqVNHSO/4jsfSXdi+fXvx1ltvRZqVkSKEXDMtEPqQyV8EsCwBYcuks9uI4FiugDCRmZhP3KexHEEqrfT+pR8Ix2VAMtKFkM4oIzIaO1j+Ji0gjKyQPhb0+74xHumDQWA5iHXJBU7A8hCEv/z7778j52NHrlkW0m+PKFSokFKe04xc/ywaN26c09NTPg99T548OW47XloiMWLECCGVX44yP/jgg0I6tXU8xkISCBuBtWvXipo1awrpxFEZOn7z0rJRKWPG4wR8phChuCQQSgKPP/64TaMrHya13bt3h5IHB+1/AvIFwHZNyz+XelmFChUyMkA41TP6NLaDBw/OSN/sxB0Ca9assc3pvffe605nllYXLVoU6btixYqWo/9l4VDU6pgS11/t2rX/qyT3+vXrF2kP0SNWr16tHDdnZs2aFalrXMvYNmnSxFwtNPteWiIBB8zmOTHvP/zww6GZEw6UBGIRQBSnKlWq2H4riCTB5D8CXCLhvzmjxCEjsGzZMk06b7TddDNt+hsy7ByuywScXu6NB2/pxM7l3v/XPCJEGH1ii5e+Xbt2ZaRvduIeAen0VpnX4447TkP0HbeTWSHQu3fvmN05xXZHdCAjffbZZ9oxxxwTGUe05RZG/W7dukXqmq/p5557zqgSqq2XFAzRQodinrIVkjdUFwMH6wsCUASb713YlxaFmnT06Av5KaRKgAoGlQdzJOApAn/88YeGL2HWm+5NN93kKTkpDAkkSwBfY63XtZHPlSuXhq+8bib0j36MPrFt2bKlm12y7QwRwEu1eV6xj5d/t1P16tUj/X766acxu6tXr16kriErFApyiYO2f/9+/cHaKG/dunXMtnCwdOnStvZw/ubNm+OeG8QKXlIwXHvttY5zg/mBY04mEgg7AatCFb8N/H3++OOPw47Gt+OnDwZ5FTORgFcJ3H777UJ+uVLEQ/g1hCiTDh+VcmZIwE8E5IuPOOuss6KKjHXsWD/vVurUqZOQcbaV5mfMmCGuuuoqpYwZ/xHYt2+fOPXUU4VUUkWEl07CBEKjunXflJYvethI+TQoihYtqvs9yJ07d6R/646McCFkNAlrscDvQjp7FDLygH6sVKlS+v0e/hWiJbksRCB8ozWdc845AqErw5i85IMBfiPki5LjNODvu7RwcDzGQhIIAwGE9pVLI4R0aKsM97777hNDhw5VypjxEQHfqkYoOAkEnMCHH35o+8KKL1zwQM5EAn4nIONcR/2qJ/+Eaghj6VY6ePCghjXt6Mf4hwgt+HrMFAwCsEYx5tbYvv76664NbuzYsZH+2rVrF7efPn36ROob8mGLc4087veffPJJ3LYGDRoUOcc4F1v5gB733KBW8JIFg9O6cmOeEHqaiQTCTADhhI3fg7GtVKmSJh09hhmL78fOJRK+n0IOIIgEYCIrv8DZbrp0CBXE2Q7nmLAm3niYcNq6qUh78803bX3LL8DhnIiAjnrAgAG2OZbWKa6N1uzPY/z48XH7gU8Fp+veXCYjDMRtBxXq1q3r2Fa8ZRoJNe7TSl5SMEgrFMf5wVxLKyqfEqbYJJA6gSlTpth+G3nz5tWklW7qjbOFrBLgEgl5h2ciAa8RuOaaa5RwZZBPru8VX3/9tZAOH70mLuUhgaQJHD58OGbovNmzZ4tWrVol3W4iJ8ivxGLatGlK1ebNm4t3331XKWPGvwReeeUVIX3VKANAeEeEbCxYsKBSnmoG13KJEiUEtkgyuo8oWbJkzGbfeecdccUVV0Stc+GFFwqY+cdaZoGT9+7dqy8HQYhMc0pkmYa5ftD258+fLxo2bGgbFsI6I7xzJpO0lhLSQ75jl9JZs2jTpo3jMRaSQJAJ7Ny5U5x//vniwIEDyjClXxJ9mZhSyIzvCFDB4Lspo8BBJzBhwgRx4403KsPEg/HSpUvFueeeq5QzQwJ+JfDPP//EfHmaOHGi6Ny5c9qHJx2n6r4djJdBowPphV+MGTPGyHLrcwIffPCB44vk1KlTRdu2bdM6OvhSgE8FpPPOO0/AJ0K8BD86VatWdaxWpEgRsWLFCgF/O/HSqFGjRM+ePW3VoLww/DjYDoagQC4xFJdffrltpGASS7FjOyHFgniK1Pfff99RzhS75ekk4GkC8tO6ft3PmzdPkRNKQfgrkcvDlHJmfEggq/YT7JwESEAhsG3bNk0+XNpMxuKFKFMaYYYEfELA6VqXf0b16//ZZ591ZRTwVm30Yd4OHDjQlf7YaHYIyJd8x3nu1atX2gWSljaRvhJtX361i5xjvg6xP3ny5IRllJYOju2EPTqBtIBy5AKT7Ewm/E23zq85j3C9TCQQNgLDhg2z/S6k1ZUmHT2GDUVgx0sfDIGdWg7MbwTkF13t4osvtt105VcYTZq/+m04lJcE4hI488wzbde78fDtVlhBpxCG6JPO1uJOl68qIHa6cS2Zt7jHpjNt2LBBk8vWIn0lcx0VKlQocp4h4w033JCweEuWLLGdb7SDF+wwJ2kJ6MhGWnxkFMuyZcsc5TDmaevWrRmVh52RQLYJrF271uZkGb8HN53wZnvMYeyfCoYwzjrH7EkCTz75pO1BRIYm02T4M0/KS6FIIFUC0b6+4mFDmn2n2rzj+V27drX9ztDfq6++6lifhf4kcOTIEcd5xleydCUohZs1a6b08+KLLybcfMWKFZVzy5cvryHCSSIJEU9q1qypnG+8tGKLqBZhTj169HBkI8PTZhQLooCY58W6f+jQoYzKw85IIJsEpC8SrVq1arbfRIcOHbIpFvt2gQAVDC5AZZMkkCyB5cuXa/Cca334kI7okm2K9UnANwTMpuXWa9+tBw7pLNX2O0Pfmf6y6ZtJ8qmgv/zyi+M8Y65htp5qWrVqlVanTh1bH9LZozZjxoyEQqzBOs247nH/h0VCIkn6Z9AaNWoUOddow7wtVqyYhuUAR48eTaTJwNTBC8zw4cNtIZ7NbJ544glN+mLJyJhxLZj7Nu8jVC4TCYSJQO/evW2/B0RZwZIxpmARoJNHebdnIoFsEpCxfoX8EiWk2ZgiBhw9whM6EwkElQC8/Ee7xuHpHR7f050QQQCOHq1p6NCh4r777rMWM+9TAtLyS8gHV0fp4QCySZMmjseiFUrLAiG/fos9e/aIjRs3CqnAiFZVL5cKA3HaaaeJChUqRL2O4VhUWhro9Z9++mlx7733Orb50UcfCbm0R/e2/v333wv8SzSdeOKJomzZsnpUi/79+4tatWoleqpv6iEiBzzPy2UxYtOmTY6/b+tgENlBWowI8JHLscSll15qrZKWvJPTZqPh0qVLix07dhhZbkkg0AQQFQdOHM0Rb3LlyiXgkLVx48aBHnsoBxcsfQlHQwL+IwCnYPLmo/yTD4Tar7/+6r/BUGISSIJAnz59lOve/DuoX79+Ei0lVhVfLc19mPfly1dijbCWLwhIJUDUuX7zzTeTHoNUSkRtz3wdWfexDChagmNR1I/nZ+eOO+7IUd9WWb799ttoovi6fMSIESnxGT9+vGvjhzWFdR6MPEzFmUggDATwPIvnWuPaN7b33HNPGIYfyjHSgkFe5UwkkC0C+DKFL2ny7hMRAeF5pKd7cdFFF0XKuEMCQSSAr7bSZNJxaPjS+s033zgey2nh3r179S+5TuffeeedQr4MOB1imQ8JSO/84oILLnCUHOFIYT3ARAJuExg0aJB48MEHHbu57LLL9K+3jgdZSAIBInD99dcL6cRRGRFC+splYQLWREzBI0AFQ/DmlCPyCQGYc1auXFns3LlTkRgPI3KNqFLGDAkEkcDEiROF9JrvODT8NuQ6d8djOS2EafvZZ5/teHrbtm3F1KlTHY+x0H8EZBQF0bp1a0fBuRzGEQsLXSDw8MMPR/173rFjRzFp0iQXemWTJOAdAtKXmGjXrp0iEJaQLVq0SFStWlUpZyY4BKhgCM5cciQ+I9C+fXvx1ltvKVJLk0n9pivDninlzJBAEAnAx0Lz5s0dh4a16zIEoOOxnBbG+qotHfaJhQsX5rRpnucxAjKag7jtttscpcJLn1ye4HiMhSSQTgLSBFw8++yzjk3SasoRCwsDRAC+cPCxQDpxVEZFJa+CI5AZKhgCOa0clNcJyJB4okuXLoqYMBNbunSpkKHLlHJmSCCoBGSMeFGjRg3H4ZUpU0ZIb/+Ox3JauGDBAiF9Ozie7kZ/jh2xMCMEYn05lr4/xODBgzMiBzsJNwEouaDsckoyNLXo27ev0yGWkYDvCWDprwzjK+BU15wuvvhi8emnnwosB2YKLgEqGII7txyZRwnAa/T5558vpNMbRcLnn39e3H777UoZMyQQZAKxPP2XLFlS7N69O63Dj6XQgNWQDHEn4NWayf8EunbtKqTzPseBPPbYY3rkAMeDLCSBNBIwRwqxNosIOogWxUQCQSSAyDd33XWXMrQiRYroSx+h0GcKNgEqGII9vxydxwggPA/CYcGJoznB2RO0vHy5MVPhftAJHD16VOTLl08JW2WM+YQTTrCZVRrHcrpFCDssvYiW4ASyePHi0Q6z3EcEZGSGqA70hg0bJu6++24fjYai+pVALEXXu+++G3WJmF/HS7lJAARkxBrdOtEaEhqOHq+77jpCCgEBKhhCMMkconcIDBkyRDzwwAOKQIjDvXr1anHqqacq5cyQQBgI4IV+3759tqEWLlxY/Pbbb7byVApgERHrdwYLB/hBYfI/Aaz7XbNmjeNAXnrpJXHLLbc4HmMhCaSTAJzYwpmtU8KSyOrVqzsdYhkJ+JbAkSNHhAzPK/D31Jzg6HHKlCnmIu4HmAAVDAGeXA7NWwTgER+h9/7++29FMNxwrR52lQrMkECACUR7ESxVqpT44Ycf0jrygwcPCphoRktz5swRLVq0iHaY5T4iAMUtIvU4pcmTJ4sOHTo4HWIZCaSVAJY9vvDCC45tbt++XZx++umOx1hIAn4lgI9o+JhmTlDs40Ma7stM4SBABUM45pmjzDIBrO2uWbOm7YsaHD1OmDAhy9KxexLIHoGGDRuK+fPn2wSAn5KVK1faylMpwBKl3LlzCzifckpjxowRWDPN5G8CMMstWLBg1EHQND0qGh5IM4FHH31UwOeHUzp8+HDM69TpHJaRgJcJfPnll6JBgwbKskcs/cUSYCwFZgoPASoYwjPXHGkWCcDRDRzemBOc3MCqIdYXVXN9kOnv0wAAK2hJREFU7pNAEAm0bdtWTJ8+3Ta0Sy65RHzyySe28lQL8CUlmvNIvAz0798/1S54fpYJbN68WZx11llRpYDiCgosJhJwm8CIESMEwlFaE6JGWdenW+swTwJ+IgALwSpVqoitW7cqYuP5N1qoVqUiM4EiQAVDoKaTg/EiAbwkNW7cWPlqivA8CNODcD1MJBBmArfeeqvAmnhrguJh6tSp1uKU83Xq1BFff/21YztYl+8ki2NlFnqWwBdffBHz3vrLL7+IokWLelZ+ChYcApMmTRKdOnWyDciNJWC2TlhAAhkkAItchGA3J4Rdh68RKNSYwkWACoZwzTdHmyYCWNu7ePHiuK0dOnRI4AXqp59+UupijdqgQYOUslQyiEph9e2QTHtwqIcXL68lLC1xMp9PRM5GjRrp5vCJ1HWrDr6UY91hsglfVxGmMQzJab0mxt29e/eo8eNT4dK+fXvx1ltvOTbRvHlzAfN5Jn8TwPxinp0SLMasIYKd6rGMBNJB4P333xfNmjWzNYUXr7Vr19rKWUACfiQwY8YMcfXVVyuiI/TzokWL6DhZoRKijFyLykQCJJAkAflCj0XcOfp33nnnafLFOckeY1c/+eSTcySLeQwLFy6M3UkWju7cuTPH45LhkLIgsdplx44dcyS/tGxRGwpw7oknnnBk9NBDD7ky6vvvv9+xP/wWpOdrV/pko5klIM3So85xpUqVMisMews1gW+++cbxWuS9JtSXRaAGv2vXLu2kk06yXefS0WOgxsnBJEeAFgwhUiZxqOkjgC/Tffv2FT/++KP+FWLHjh0JN163bl3x+eefi2OPPTbhc+JVHDdunIBZMLzub9iwQcgX83iniLx584pzzjlH4EsKzNfuvfdeIR++456XyQpwyocv3MuXL9fHtn79+oS7x1rAFStWJFw/3RXhIRzrwI8ePZpQ01JJJBBRoXTp0gL+OQYMGJDQeX6vNHLkSNGrVy/bMIYNGybuvvtuW3mqBaNGjRI9e/Z0bAb84ReFyd8EBg8erN+fnUZBKxUnKixzi8CWLVvEmWeeaWseDu8+/PBDWzkLSMBvBGChA0sdc7rooosELGuxHJgppASS00ewNgmQgBMB+QKsyZcWLV++fDYtrry12Mruuecep2bSVvbVV19pUnlg6xeySI++mvRqrcklFWnrL1MNbdu2Tbvjjjv0MThxtZa99957mRLN1o90bOTI3yqjVEJo0umc7fywFIwfP96Rk4wd7woCGYrSsT/MS7ly5Vzpk41mlgCsX6y/MyPfo0ePzArD3kJNQPr7cLwWW7duHWouHHwwCDhZi8llaJp09BiMAXIUOSZACwb51MFEAukigK8V11xzje7UJl6b8gVKdO7cOV61HB9HCCxYKMCqwZxeeeUVceONN5qLfLcPj8RSSRNXboRAhDPNTCc4kYMlAnxwxEoVKlTQ1ygef/zxsaoF+tjkyZPFddddZxujW6EE161bJ+QyJVt/KIDfi2gRJhxPYKEnCcDyZfjw4Y6yIT67XCbjeIyFJJBuAvLpXLcWtFqytWvXTkyZMiXd3bE9EsgYAViUVq9e3RYNBY4er7/++ozJwY68SYAKBm/OC6XyMQG5plw8/PDDcUcgrR30pRIXXHBB3Lo5rXDfffeJZ555JnI6nDnC4SSWR/g54aENL4NYohIvwcmQm4yd+o9lom2uz7CIQn/Ivvbaa81Y9H0si6lataqtPNWC33//XRx33HGOzeD38dtvvzkeY6F/CHTr1k2MHTvWUWA4gIQSmIkEMkXgtNNOsy1bdCtKTqbGxH7CTeDIkSO6Y3BEiDAnOHqcNm2auYj7ISVABUNIJ57DdocAIgbUqlVLIPpBIunUU08VS5YsEaecckoi1ZOuYw2Rdfnll9vWyiXdqEdOgPXHa6+9FleaTP/BQzSPsmXLJvQlHNYVsLIIc3r55ZfFzTffrCAoVKiQQKSW3LlzK+XpypQoUcJROUUFQ7oIZ7cdhBuFXxqnhBCltWvXdjrEMhJwhQD+BsHLvjldcsklAiGsmUjAjwQefPBBWyQ0PMfiGVg6fPTjkChzmglQwZBmoGwuvASgVIByIdmwhHjYRShGWDSkO6Fd8wtshw4dBEzSg5AGDhwoHnnkkbhDgZMhmPKVL18+bt10VMASlJtuuimhpqTvBYGQlGFOTz75pJBr5hUEjRs3FvPmzVPK0pnBb056d7c1efbZZ+vXiu0AC3xFoF+/fuLxxx93lHnPnj0CCiYmEsgUAaclfXConOyzQqbkZT8kEIuAjDgmZKQr8c8//yjV4OgRH7GYSEAnkGPvDTyRBEhAISDX/dqcOckvsLYy+cOzlXXp0kVpK10ZaR2h9NW9e/d0NZ31dp5//nllbE5cjTL5RTMj8sqoF5qMypGwXHBaGfYEp53GPBnb/v37u4pFLsmw9Ym+L730Ulf7ZeOZITB69GjH+S1QoEBmBGAvJGAiIJfp2a7H4sWLm2pwlwT8QeDgwYO6M2Tjb7Wxxd9xJhIwE6AFg/x1MJFAqgRg6i5fToT8cUWawpdz+AmQMYIjZbF23AjLt3btWiX0JJybwclZEBKWRyTqJBPWIfJlXp8PN8cOx4QtW7ZMuIsDBw6IE044IeH6QazYvn17gXXx5vTRRx/pvydzWTr3e/fuLZ5++mlbkzfccIOQUS1s5SzwF4Fov0MZJURs3rzZX4OhtL4ngPXqcOQL/y9GQphqlMuoTkYRtyTgeQJwED5hwgRFTjgTX7ZsmZAKXKWcmZATMGsbuE8CJJA8AblWXJMRA2xfKOTLvCbjX9vK5S3HsUw+cGgyLnbyAsQ4QyoYlL4eeOCBGLX9dUj6l1DGJpdAKHkr50yMvUGDBooMCEFplcOcRwizsCe5FllhBKsfGX3DVSzSfF7p05gTaVrvar9sPDMEVqxY4Ti/1apVy4wA7IUELASs9zncc6TDZUstZknAuwRmzpxpu6/myZNHk44evSs0JcsaAVowyLs8EwmkQgAh9qx+DbCufvHixUKayyf1xQxfs7E2XL6YpiJS5FxrSD75km1zzBOp7LMda3jD5557TvTp00f8+eefjiMpWrSo+P777wUc+bmRMN/maBVwUAiZevbsGbU7hLOEXGFOCBmJ69RI8GPi5B/BOJ6OrVxeI6RJp62pMWPGCEQgSDXhGkSornhhShPpB/4orH46YOGxatWqRE6P1KlRo4aQCrBIPsg7+/fvF8WKFbMNEf5oshG21iYIC0JHwMkvyLfffquHkg4dDA7YdwTgu6Zy5cp6FDKz8IMGDRJ4rmQiARuBrKk22DEJBICA9Su6/IFp0hxfkw//+ujMFgwysoAmw+7ZNMA4x/wPa/hlqLy00AmTBYM0s9duvfVWhaWZK/aHDh2aFq5OjcjQd0rf0qGmJk21lTKrPGG3YJBOorQiRYoojODLxO0kTTyVPo15mTt3blq6ls7bHNs3+klm++KLL9pkkkqQpNuXnr1t7QS5AP4WrJxbtWoV5CFzbB4mIB3g2a7Ht99+28MSUzQS+I9A8+bNbddvvXr1tKNHj/5XiXskYCKANeNMJEACOSAgv4Zr0uLAdtOVHqMjrZkVDPJLrbZ9+3YNzp2sD77W/BVXXKHBYWCqKWwKhg0bNmjS90VUvjIsqCajfaSK1Xa+XNetYYmLeR7lmkQqGGyk1IKvvvpKYQZ+06dPVyu5kJMhtmz9wtQzXSbL+J3Xr19fXzoV63o0Xy/W/YIFC2p169bVnJQeI0aM0KpUqWIbg7UNIy/Xf2tNmzZ1gaR3m5TWCjY+WMLERALZIPDrr7/a/jbdfvvt2RCFfZJAUgRGjhxpu5dKS1Bty5YtSbXDyuEiQAVDuOabo00TAbz8w+O88QBvbBs1aqQoBqwKBnT/xRdfaHiZMc6JtpWh+1KWNmwKBgBr06ZNTLYvv/xyylytDeBB0TyP0qxdr0ILBispNf/www8r3KTDM23v3r1qJRdy8LVgni/s4wuNGwkPYfCwDcsma5/R8vDpkoiyQy6ViNkmlBzp9uviBiM32pTLXWxsYEXGRALZIlC9enXlmqxQoUK2RGG/JJAQAXy0gbLb+rcKVoBMJBCLABUMsejwGAlEISA90NtuuPhKuGPHDuUMJwUDKrz00ku28603cORh9p9KCqOCQcZojsn23HPPVZRAqfDFuXgRtP4B/uCDD/RmqWCITRdO98zXfabCREq/KUq/kEFGJYktbIpH5dp/23IQ89jN+8ksEzn99NNtY0FbcGqKJShhTfhdWsMEI0+T3rBeEdkft1P4VBndKPuCUQIScCAgo5xo0ieS7e/LVVdd5VCbRSSgEqCCQeXBHAnEJYD11U5fI6XTQdu50RQMqGj96m1+wTD28eK6fPlyW7uJFoRRwQA2F110ke2PosEU21mzZiWKMG69gQMHKn3BdN1IVDAYJOzbnTt3KtwwL6+//rq9ogslderUUfrGen3E93Y7LVq0SMufP7/St/m6NPYTNeVfv369Y1uPPfaY20PxRfvNmjWz8cHyFSYSyAYBGaZSgy8U43eO7dixY7MhCvskgbgEYEVrvlaxL0Ova/v27Yt7LiuQABUMvAZIIAkCWL/vtPYZX0SdUiwFA7TDWFJhvYFb82XKlNF+/PFHp+bjloVVwTB79uyYXPGCmY70xx9/2HxqmF+SqWCIThkP1uZrXUbT0PAA7nbCF2zrQz4cdGYqyegSyrjNDMz706ZNiysSnBaaz8H+nXfeGfe8sFRwYv3OO++EZfgcpwcJWF/a2rVr50EpKVLYCcAS1OpXCn9fnHwChZ0Vx+9MgAoGZy4sJQFHAvfee6/tgR7rpX/++WfH+rEUDDgBZrzlypWztWl9abj44ou1v//+27GPWIVhVTDARwaWQlg5mvOff/55LHQJHbOu84a5OhRHRqKCwSBh38KRqXk+EAEkE2nGjBlKv5AB8b0zme666y6bDGYW2C9VqpQWK8rI+PHjbW1A4RDmZRHWOYRjPavFyJVXXmmtxjwJZIzA7t27tbx580Z+u3AUDUU1Ewl4hQCs+czPrsbfJjol9coM+UMOKhj8MU+U0gMEPvvsM5sXaDil+/jjj6NKZ75JI4qEU8KSC3jkNW7i0bbdu3d3Oj1mWVgVDIACZ47RWKK8ZcuWMdnFO4gXOTjpMvcxbNgw5TQqGBQckcymTZuUryP4UiJjwkeOu7mD5QfmOStfvrwrkUVijQHKwpo1aypymGUy9m+88UbHZhDBBhYfRj1szz77bA0v1Ewqgdtuu03hhGsNy3OYSCBbBLp06aJck06haLMlG/slga5duyrXp/H3JRMWhqQfHAJUMARnLjkSFwngS6KTM7X77rsvZq+JKBjQAHwCQFlhfmFw2k/2QSTMCoY///xTQ1hKJ44oA+81a9bEnL9YBzFn5rbh5NO6jp8KBmeCN9xwg8Iu2ou089k5L4U/E/OcIYQkorpkI23cuFE77rjjFHnMshn777//viIerHMQpcQ4ji3awW+dyU7gt99+s927BwwYYK/IEhLIEIEVK1Yov19YMdL5aIbgs5uYBN5++23l2sTfFzjHXbx4cczzeJAErASoYLASYZ4EHAh07NjRdtOtXLmyhpfYWClRBQPaePzxx219mF8isI/wlvPnz4/VpXIszAoGgBg8eHBMpp07d1Z4JZOpV6+e0nbfvn1tp1PBYEOirVu3TvHuD3PhTHlSx3ybf1PZ9lfg5FXeLB/2zzjjDO3w4cMRkEOGDFHGgDqTJk2KHOeOnQCUNGauWNZmZmo/gyUk4C4Bq/+lF154wd0O2ToJxCGwZ88e7eSTT1bulbhvPvHEE3HO5GESsBOggsHOhCUkoBBAqEjzwyn2EUVi5cqVSj2nTDIKBpwPZ3PWvqx5/AFI9IUs7AoG+MaItfwEChtraFGnebSWWUNh4nrA2lprooJBJQInqVWrVlWu8TvuuEOt5FIOcbvNvyX8Nr3wktmiRQtFLrOMxn7v3r11KohCgWvWKMe2W7duLhELVrOwkjFzgy8G+qsI1hz7aTRwlme+HhExKlPLxPzEibJmjgCWjZqvSezXrVuX1jWZm4JA9UQFQ6Cmk4NJN4EffvhBgxMm6033mWeeSairZBUMeOGpVq2arT9r/3hJS+TlKOwKBkySk2NOM8+77747obk0V0IcaHMbN998s/lwZJ8KhggKfadXr14KN5gGw4Td7fThhx8qL+ZYHpOMJZCb8uGrUbFixRQu5msL+zBRhbxWh7C4D9BBXGKzA2WjdcnUPffck9jJrEUCLhCwKr3wt59+VFwAzSbjEhg1apTtb1ChQoW0zZs3xz2XFUjAiQAVDE5UWEYCkoDTWmc87Dds2FA/lgikZBUMaBNf1IsXL2672VtfOhIJrUcFw/94Wr/6mlnij+iBAwcSmU69DtbOY+2+0QZeVqN9eaKC4X9Y8VuCIsdghi1emr/++uuEuee0ItY7FylSROnbay+WiGJhZpPIPsYEZ5lMiROYM2eO8tsF52T92iTeG2uSQGwCUA7WqFFD+e1Xr149x2GpY/fGoyTgTCCaP6BXXnnF+QSWkkACBKhgSAASq4STACICWB/04bl9+/btCQPJiYIBjX/55ZdKKCurHEYefhtiJSoY/kfHuvbe4Gds43E0M0Y0D+M8bBFuMVqigkHT8IXeaenPwIEDo2FLSzksfIYOHaqddNJJkfmCYsir60mdPHebrzPr/tSpU9PCKWyNwImZ2bkmrokOHTpEVRKGjQ/Hm1kCWO5ovkfhd37WWWdpn3zySWYFYW+hJICw2hdccEHkb6Txd4bhfEN5OaR10FQwpBUnGwsKAbyYW+On48b7+uuvJzXEnCoY0MnYsWNtN33j5m9s8fUcD8zREhUM/yOzatWqmCxhMZKIqfmPP/6oFShQQGkLyqBoKewKhtdee83RB8a1117r2vp3Q7FgtQLCF/933nkn2lRlvRxLReDQ0fhtx9oyHnlq07V06VLbcgkqGlJjyrNzTmDevHlK2F7jt9+mTZucN8ozSSABAv369bP9zSlRooS2b9++BM5mFRKIToAKhuhseCSkBJwc0eEPPr5yJZtSUTCgL+uadePBw7yFE0MoEpwSFQz/UWnWrJntD6mZI9YgxkuPPPKI0kadOnVinhJ2BcP111+v8AJv+K/AVxO3knVdM/qsUKGCL75QQ1llXn5jvj7N+4xHnvrV8/3332tVqlSxXZ94uMaSHiYSyCSBaBGPMikD+woXASxRxFJF898W7OO5hYkEUiVABUOqBHl+4AjAY7v1hnvaaacltU7fgJKqggEvYpdeeqlNHqt8MKl08iNABYMxE5r26aefxuSIuYoVixxfxq3O+GbMmPFfBw57VDCoCgY42fv7778dSKWvyGk5jJ++xiDcqfX3bc27vbwkfbPh7ZYOHjyo1axZ08Y71n3A2yOidH4m0Lp1a9u16OfxUHbvEjh06JC+FMf6t+W2227zrtCUzFcEqGDw1XRRWLcJwFO79QsiliF89NFHOeo6VQUDOt2/f79mbsf6B8HIX3bZZbYXZCoY1GmrVauW7QHO4IctQpJGS4hTbq6Lr+LxwtxRwaAqGPDb+uCDD6IhTku5k4IBvw2/eGeHAiZeJBl8dfrmm2/SwiuRRnCdT5o0SXvyySe1Rx99VPvqq68SOS1SB4rSl19+WT+3T58+nong4bRUAr9xKhgiU8edDBHAb4wKhgzBZjcaIl+Zn2ewj2eaRKKTER8JJEKACoZEKLFOKAjgBaRMmTK2m24qHufNioHzzjsvxxzXrFnjuJbd+gfCGnKRCgYV+ZQpU2zza2YIj95OCS8c5rnEOWPGjHGqqpRRwaAqGMDtxBNP1LZu3apwSmdm1qxZjr/jSpUqJeWgNZ0yJdvW9OnTY16n4Jiph0EsF7AuL4LSdfTo0QkNCy9OTlZYI0aMSOh8typBYWL1p5I3b16tR48eXCLhFnS260gAv7GbbrrJ8TfveAILSSAFArNnz7Zda5lWWqcgPk/1CQEqGHwyURTTfQKdOnWy3XShFEjE+V806cwvpakoGNA+nDniwd78Quy0P2HChIg4VDBEUOg7UBSUK1cuJkMnaxV47DezxjrtRK6LsCsYVq5cqV100UUKO3BEKLZE+Kmzl3gOflTwAly6dGml75IlS2qLFy9OvKEs1MQXJChDzNdbtH1ENHE7wTGmU/8FCxZMaLlLNGUJnOi6eQ1E4wKFh3UZXL58+bSePXtq8MvARAKZJnDHHXfYfmO4VzFMYKZnIvj97d271zEMOpfdBX/uMz1CKhgyTZz9eZKA9QUSD9T4mrVixYqU5E2nggGCIMSe08O+uQwPy3Deg0QFg45B+c+61MHMDvswp7em2rVrK9wT/WMcdgWDwXH8+PG2sKtwxuh2gqKhf//+ytzhxXju3Llud53j9rt06aLIa70+rfk5c+bkuK9ETsSyCGufRn7Dhg1xm8CSCqO+dYvoLplMUN40bdpUkef888/Xfvjhh0yKwb5IIELA6dmjffv2GvyDMJFAugm0atVKuf/hnnzhhRdyWVi6QbM9jQoGXgShJ7Bz507dbNv68Dt06NCU2aRbwQCBEOLPKqs1D2d6GBcVDPYpdHLWaOW3bNmyyImff/65wvu4447T/WJEKsTYoYLhPzjwvYCXezPrRM3s/2slZ3vWaCwnnHCCtnv37pw15uJZ48aNU/iYWUXbhzUNwqe6lWLJBP8w8dLzzz8fdUyZfrG/6667FFngvDfTMsTjxePhIQCLGdyLzL9tWNLAyoaJBNJNAH9vzdca9vE8s2nTpnR3xfZIgAoGXgPhJoC1j02aNLHddBs0aJCWP/JuKBgQog4m5tY/FNY8vrrDiZm5/IEHHgjMhGMNtXlssRw0Wgdt/aptbgf7UOIYyarxhzlrookKBpWUlQeshBYtWqRWciGHpTEtW7ZUrpcrr7zShZ5y3iSspaw+AWA9gOvaen1a87hG3Up79uzRTjrpJJsMLVq0SKjL7du3O/qPueSSSxI6P12VvvjiC8WBb9GiRbXVq1enq3m2QwJJEYASoWHDhsrvymv3pKQGxMqeJgAlApQJ1r8dUCAzkYAbBGjB4AZVtukbAsOHD7fdcPHguW3btrSMwQ0FAwTbsWOHhi+X1j8W1rw1BBsVDP+bVoQttH5NN7M79thjtc2bN2vr1q1T/F7AEdLWJBwUWl+ozX1g/5dffknLdeanRqzWBPXr18+I+DA5rlKlivKbeeONNzLSd7xO4GC2fPnyimxwrAgFKFLHjh2VY9brCPlEnI7GkyPacSgq69Spo+XJk0crUqSIBn81TmFxo52Pl3uwRxQR/O7atm3rqtWFVQ4oZa18582bZ63GPAlkjMDrr7+u/KZLlSqVsGVcxoRkR4EgAAU7lkFY/25cccUVgRgfB+FNAlQweHNeKFUGCODl0frFEDdg/OFPV3JLwQD5vvzyS9u6dusfEGueCob/ZhamqFY+5jziQVtDOXXo0OG/BhLYo4LBDgmO/c444wyFfaYcL8JRqnmOixUrltEXXTuN/5W0a9dOkQvOKX/66adIdbzM4wXELLt1H1+nNm7cGDnHjR1D4ZHTtuETIxvm34gEZOaVaeuJnPLiecEkgFC0VmfDM2fODOZgOaqsE3Dyg1O8eHFP/O3LOhwK4BoBKhhcQ8uGvUwAf+CdlhngQT+dyU0FA+REbHnzg3O8fSoY/pvd7777ToOlQjxm5uNm3wz/tRR9jwoGZzbWtaDJKm6cW41fii85WHdvntNrrrkm/oku1njuuecUeWAlsHDhQluPH374oWJNYx6DsX/BBRdoR44csZ0b5oIFCxYoSyPAii9zYb4isj/2F198UfnNw7onVeVd9kdFCbxIAEsQYXlp/I0wtogOxEQCbhKggsFNumzbswT69Olju+G6YaLotoIBgJ1CXBl/RKxbKhjUSxIvl1ZG0fKXXnqpenICOSoYnCH9+eef2imnnBJhjwcgLPvJRHLyv+H0Qp8JWfDwBz8U5mvumWeeidr17bffrtQ1n2fsP/LII1HPD+MBLO0w2GAL65lsWFGEkT3HbCeAex+cMJuvSUSSYCKBdBOAQ+sKFSoo1xquu0yEN073WNie/whQweC/OaPEKRKwOvvCDTdXrlwavhCmO2VCwYCvso0bN7b9ETE/wBj7VDCoM/zNN98kxA38EAUh2UQFQ3RiDz74oMK+d+/e0Sun8QiiBlgtV/DinumECAxlypRRGMRz8hbtgdH4fWOLsX311VeZHo4n+9uyZYvCF3zSER3Ik4OlUL4g8OabbyrXJKJI4G84Ewmkm0C3bt2Uaw33P/iiOXToULq7YnskYCNABYMNCQuCTOC3336zrf/GTRfhy9xIWEuN9vHvnHPOcaMLvU28rJiVGUaf1m2QFAzjx4+PsMU4J0+enCO+WI9t5WTNw4Q1Jwmm2Na2zPlEwvzlpF8/nGMN/3n88cdnLPZ7jRo1lHnBetRMPuTDHBpRGMzXAr6s//zzz3GnLprJq7kt3Avg1DLsCVE4zFywD6UiEwlki4A1alX79u2zJQr7DTCBOXPm2O59sBT8+uuvAzxqDs1LBKhg8NJsUBbXCXTu3Nl2061YsaIGx3NuJHhcNx5wy5Yt60YXkTbXrl3rGA7O6B/bnCgYYE48ffp0rW/fvtqNN96owYTbC3+krBFAXnnllQiLZHbmzp0bmSMzK/P+a6+9lkyTkboTJkyI2fauXbsidRPd8ep8JCq/UQ9+UAoXLqzwgT+CTKSrr75a6Rdz7YYFU7SxDBw4UOkffheScXT50EMPKeebr1Vjv0uXLtG6D0155cqVbZwQQYaJBLJBAMvAEEnF+I1i++qrr2ZDFPYZYAI//vijY5SxAQMGBHjUHJrXCFDB4LUZoTyuEcBLsvkPO/ax/jlZx32JCogXQSy9MPrEF1q30+zZs20PMEb/2CarYPj+++8dwxuhLXx5yaapHf5Ymsc2bNiwHOHF12SnFxGj7dNPPz3HjvOsDvyMNo0tlELJJC/PRzLjMOoiTJbBAlt4Vs/E+nhrVAH0DeVZJtL7779v+40OGjQoqa6xjhsWUWZ2Tvs5tepJShiPVl69erWNDxRaTCSQLQJWxSKUDXgZZCKBdBJo3bq17d5Xu3btHD/HpFM2thUeAlQwhGeuQz1SfCk+6aSTbDfdIUOGuMZl586dtv6wRMPt5GQWbLx8JKNggMl43bp1bWMw2sIWSwfwspONdOuttyqypbLMZeLEiUpb5jHmVHEBJk7ORM1tw3oi0eT1+Uh0HOZ6I0eOtHHPhMNFJ8UPFIAIo+hmQhhJrLk2XwMNGjTIkVIFvmTMCkxzm8Y+Xqi//fbbtA0Jv/W33npLe/bZZ3PkkwQRLmbNmqWf77afCKuPDzDJ6VKntAFkQ6EmUKtWLeW3j5c+JhJIJ4GXXnpJucZw38tECON0joFtBYMAFQzBmEeOIg6Bpk2b2m66F110UY4e7ON0FTk8duxYW585cRQYaTCJHVgXGC8Z5m0yCga8AJjPjbYPhUY2ktm/BWRL5WEN5vrW8IVoM1W/ALEsI9A+TN0TTV6fj0THYa6HF27rdfXUU0+Zq7iyP2PGDFu/kMPNZRIHDhywefSGBdW2bdtyPEZYXVj5WfPnnnuulqpic8OGDdq9996rKGmx3CzRhDE+/PDDivf8q666KtHTc1QPS9+sLBo1apSjtngSCaRKANZ+1nCBjz32WKrN8nwSiBBA6O1ChQrZ7ntQOjCRQKYJUMGQaeLsL+MERowYYbvhwjfC1q1bXZNl+/btGh7snR5w4Qne7fT7779rVkd2kCUZBcMLL7xgk986HuTxB23v3r1uD0lpH34gnGRB1IacpqefftrWZjK8rP3CJ4STjOayk08+OeHr0MvzYR17MnmEhzUzwbIJt9Pbb7+t9Gn0P3r0aFe6xm/eGi4RfbZp0yal/uALxZA91hYhVpO1zkB9eLyP5gQ1noIBFjfg3Lx5c9uSEMgKM143U/78+W1sUlFCuikr2w4+gY8++sh2PaKMiQTSQQD3W6e/MS1btkxH82yDBJImQAVD0sh4gp8IwDy4QIECtj/sbjhWwg0e/cHcvlixYrY+jRcArDOHPwg4fML6f7cS1uuXKFFCkSOZF+bxligNhvxOW7xIuJ3gYR+RB66//nplTGZ5YDLes2dPbfny5Vqyipxff/1VK1q0aKTtfPnyabt3705qWGhjwYIF2m233RZpxyyf0z4UNHBYuX79+phrJL02H0mBiVHZ+lCEpUxu/i4gCpx2Os0FvrKnO/30009a/fr1HftDmEocz2lKVOmEsV522WUJrfeGchQhQ6H8cmJklEVTMOzZs0d79NFHNaviyDjP2LqpYIAjR6Mf8xZKXyYSyAaB/v37267JNWvWZEMU9hlAAlafVLjv4R6e6Y8/AUTLIeWQABUMOQTH07xPAGbvTl/x27Ztm1bhESnglFNO0Zy+mJkfbp32CxYsqJ+LCA1uJLzswgzb6DsZBQO82hvnxdu6FVseL/hgG+9lx0k+KBsQfhDnJ+o53uwz4aabbkpoSqBYwlde9OUkRzJlMKEtWbKk/jJo7dwL82GVKR15q6NH8Fq3bl06mo7aBnwIOM3LDTfcEPWcZA/gt4eXcCcFp7lvOBGFomDp0qUa7lnxEiLeoG38lrG21txWvH3I0qNHD23atGlRGeO3HK8dHI+mYIDyNpHz3VQwwHGvkwynnnpqPLw8TgKuEGjcuLHtmkz075IrArHRwBDAs4F1+Q3uf5n48BMYiBxI2glQwZB2pGzQKwTw0m59yMQD5v79+9MqIl5Erf0km3dzLabZVD8ZBQMgtWjRIqGx3XLLLWllajSGtePxXtASYZ2oFh+OOaGQgXIiUed4sJRIRIZk6lStWtVAoGyzPR+KMGnKOP1+3F4z6nRvwPzgJSBdCYqDZOYcdROJaNOvX7+k23WSAw+kTgm/AVggzJw5U8OSI6elXmgvmoIBVjywBJkyZYruCBLLEpz6d1PBgGg6Tn3it52JKCVOXFkWXgJQQlvXxuP357alVniJh2fkeP44++yzbfe7bt26hQcCR+pJAlQweHJaKFSqBPCF79hjj1VuunhpzJSTxVTlT/f5jzzyiB4R4ssvv0yqafzxuv/++/U/YHg4r1ChgoYQf3CGZ36Av/nmm5Nql5VzRiCI8wGll/lawn60l9ecUbOf1alTJ1uf6BehH9OVklUwwEonkSU51113naPsVobx8tEUDNbxQ1Hg1Faic/Tpp586nu+mgiHW0hEsHWMigUwSWLJkie03AEs1JhJIlUD37t1t19ZZZ52V1RDiqY6J5weDQC4MQz48MJFAYAgcPHhQyC/AYsuWLcqY7rjjDiHD0yllzOSMgPzyIuSSECHDzukNSJNzIcNE5qwxnpUyAT/PhwwDKmSEAoXBmWeeKaRHbKUsnRm5pEV89tlntiblV0aB+wfTfwSkrxghfUX8V/D/e1LBIKS/GVu5tUCGthTSCslaLKSCQciQlbbydBTIEJVi0KBBjk3J8J5C+sRwPMZCEnCDAJ47rH8fZchUsWLFCje6Y5shIfDee+8J6URXGa38sCbkhyRx4YUXKuXMkECmCVDBkGni7M91AjJ0m5B+EZR+pJmvkGucHR90lYrMJERg06ZNQlozROp+8sknAi9tTNkh4Of5kA4XBV5WrUl+zRfyK5+1OC35smXLCunM0LEt6txVLNIvhJAOT9VCmUtUwYATTzjhBPHLL78obbipYOjVq5cYOXKk0p+RwfUmLViMLLck4DoB6fdJSMfOSj/S6aqQloBKGTMkkCgB6RxYyDDYQjrVVU6Ry9uEdCiqlDFDAtkgQAVDNqizT9cIyHXDQoZ+U9rPkyePkOHcRPXq1ZVyZnJOQDpyE126dNEbkEtPhHRWJaT3/5w3yDNTIuDn+ZgzZ45o1aqVbfxz584VzZo1s5WnWgCrG3xRl2vxbU2hXIZ4tZWHvQAKBigazCkZBYNcLiLk0gTz6a5aMMhlXUI6q1T6MzLS342QfiyMLLck4DoBGTlKyLDYSj8yfKB45513lDJmSCBRAnjOxfOuOdWqVUssXLhQyOVv5mLuk0B2CARjpQdHQQKavn7ZKTykNJUlnjQS+OuvvzRpwo6lVfo/hI1kyh4Bv88HPF0b15J560YoWczSxo0bHftD37h/MNkJOEWrkAoGe8UoJWeccYaNuZs+GOCk0nwtmfe7du0aRUoWk4A7BKwOHnE9NmnSxJ3O2GrgCYwbN852f0NEsg0bNgR+7BygfwjQyaN/5oqSxiEgv3babrqIP0+v4XHAJXl4yJAhEc54cNq1a1eSLbB6Ogn4fT6mTp0auZ7ML4IIJelGgqNXcz/mfelrwI0ufd9m0aJFbcySUTDAOayZM/bdVDCYfxPWfhs1auT7+eAA/ENA+iCxXfu4Jhs0aOCfQVBSzxDYvHmzVrhwYds1NXr0aM/ISEFIAASoYOB1EAgCcr2t7YaLm7B09BiI8XllEHg5g6bceGindUh2ZyYI8zF+/PjI9WRcV9gi1KEbaezYsY79oc/zzjvPjS5936Zc/mRjloyCoWLFirbz3VQwOP09MK4tWF8xkUCmCEABb1x75q1cspkpEdhPQAgg3Gm9evVs15N09BiQEXIYQSJABUOQZjOkY1m/fr3y0mv8EZeOHkNKxJ1hv/HGG5r0ZxH543bttddqcl22O52x1bgEgjIf0sN65JoyfrvY9ujRIy6DnFSQ6+8d+0OfdevWzUmTgT/HaelZMgoGKG7Mc4t9NxUMuPdb+zPyCLcro64Efs44QG8QWLVqleO1iFCCTCSQDIGBAwfariWEN5aOHpNphnVJICME/g8AAP//lqdDcwAAQABJREFU7Z0LuFXT9sCH3tFD8iok5VHS+0GJnip0pVAeXbqFiyRJkq53ksTtpouQdCtE4SK9S6j0fos8Si+vREXpZf/nWP+7z7fmXmufzjntffZae//G951vrTnWWnOO+Zt777PWWHOOIREEAiEmsH///ki9evUiImL9dejQIcS9CpbpW7Zsidx5552RI444IovxLbfcEjl48GCwDM0Qa9JtPAYMGJD1uXJ/jzt27JiUEb3hhht829O2r7zyyqS0GfZKjz32WA+z66+/Psfdqlatmuf6du3a5fj63J44ZcoUT3vuz9bWrVtzWyXnJ5jAnj17IsuWLYuMGTMmMmTIkMi4ceMi8+bNi+zduzfBLaW2utmzZ/t+Fo8//vjUGkbroSKwePHiSOHChT2fpbfffjtU/cDYzCEgmdNVepqOBPr37+/5wS1Xrlxk27Zt6djdfO3Tpk2bIjfffHOkaNGiWYxLly4dGTZsWL7aQWP/TyBdx6N3795Zny/3Q2CLFi2SMvRNmzb1bU/b7tmzZ1LaDHulYXMwrFy5Mu4Y6zjPnz8/7EMSWvu///77yO233x4pUqSI7xgdd9xxkXvvvTfyww8/hLaPbsMnTJjg2099WEQgkBMCu3fvjlSpUsXzObrxxhtzcjnnQCAlBHAwpAQ7jSaCgL7tKFiwoOdHd/LkyYmoPuPr+Ne//pXFVm8Gb7rppsiPP/6Y8VxSBSBdx6NLly5ZnzO3g6FWrVpJQV2pUiXf9rTtJ554Iilthr3SsDkY1MHs/izF7r/++uthH5JQ2v/kk09GjjrqqGzHJjpWJ5xwQmTq1Kmh7Kfb6BEjRsTt744dO9ynsg8BXwK33Xab5zOk/8d27drlez5KCASBAA6GIIwCNuSagP6wVq5c2fOjq29GkMQQmDFjRqRq1aqRwYMH41hIDNLDqiVdx6Nt27ae77E+ZJxyyimHxSvexaVKlfJtT9scO3ZsvMsyWh82B4MOlnvmVfShNbp99tlnAzmeX331VaR169YRfYuvzC+99NLIhg0bAmlrbo267777PN+75s2bO0skFi5cGHnzzTcjDRo0sM7RZXnDhw/PbVOBOv+xxx6z+hT9DOr266+/DpStGBM8An7LvfTF2ty5c4NnLBZBwEUAB4MLBrvhIdC1a1fPP22dQqZTyRAIQCA8BBo2bOj5LuvN95FHHpmUThQoUMC3PW1z1qxZSWkz7JWG0cFQsWLFuOOsTtOgyR9//BE588wzPTZXr149sm/fvqCZmyt77r77bk+/dBmEXxyf6667zjpXnQxhdvzdddddVn/cDoYFCxbkiiMnZxYBnYmlS37dnxndv//++zMLBL0NJQEcDKEctsw2+p133vH84Op6Rg2Cg0AAAuEi4DcTSW+i1BGQaPn99989vx3um7cvvvgi0U2mRX1hdDA0atQo7lgH8Qb9o48+imvvokWLQvs5Utbu75ju/+Uvf4nbH31JULduXeuaQoUKRcL6MO43vT3K4913343LgQMQuOKKK6zvgX5uNKi5BjdHIBB0AjgYgj5C2GcR0ABROn00+g86utVpiAgEIBA+AiVKlPB8n/V7nYwgaBo4Lvqb4bdlTav/5yeMDgbNCOI3xqrr1auXf0dTqPVznEft12nSYZTPP/88os6BaD90q9/rdevWZdsdnf7tvkb3a9SoEcqZHJqBKbYv0fILL7yQLQcOZi6Bl19+2fO5KV68eES/UwgEwkAAB0MYRgkbswjomtToP+foVt9UHThwIOscdiAAgXAQ+O233zzf5+j3Wm+mEi265jlaf+xWYzMg/gTC6GC444474o61BqwNmmj8BXcq4OjnU2fybN68OWjm5sgenakQ7Ud0q0sGciK1a9f2XBvGFwl9+/b19CPK4pFHHskJCs7JMALr16+PlCxZ0vO5CWrsmAwbHrqbQwI4GHIIitNST0B/XKP/mKNbfftJoKTUjw0WQCAvBLJ74NcbrESLLoGI/nbEbjWgKeJPoEyZMh5unTt39j/ZR1utWjXP9e3atfM5M3GqQYMGedqMjnm3bt0S11ACa7rnnns8Nj/44IMJbCH/qpo5c6anL8r/m2++yZERI0eO9FxfrFixyJYtW3J0fVBOeuCBBzz9iH4OdfkEAgE3AY1L0rhxY89n5uKLL3afxj4EAk/gCLXQ/NghEAg0gS+//FJM2jox6zMtO800Mvnb3/5m6ShAAALhIDB//nwxM5B8jT3++OPFLGnwPZZX5XfffSfly5f3vbxFixZiMnX4Hst0pUlTK2bdr4Whffv28tZbb1m6eIVzzjlH1qxZYx02DgYxywIsXSILY8aMkeuvv963SrNEQp5++mnfY6lW6mfQxGMQM5tBmjVrJk2bNk21SbluX28rzQwEWbFihXWtyQwjGzdutHTxCvrdP/HEEz2HBwwYIP379/fog6oYOHBgXHvNGnuZMGFCUE3HrhQQ8Pu8mBlksmrVKt/vQwpMpEkI5IgADoYcYeKkVBIwyx/k/PPPF5PKyjLj8ssvl7ffftvSUYAABMJDwAQ5E33Q9JPTTjtNzNtOv0N51pkgj2JmPflerw+jo0eP9j2WycodO3bI0Ucf7UFwwQUXOA/CngM+ilQ4GMwbdGnZsqWPNSIPPfSQmJkBvsdQHj6BJUuWiAlG56nIzHoRdfzkVCpUqCCbNm2yTtffBTPzyXHAWAcCWnjqqafEZNHwte7CCy+UOXPm+B5DmXkEli1bJueee67HmauOXHXoIhAIFYHAz7HAwIwn4BeF2rzZiPz0008ZzwYAEAgzgZdeeskzFdT8A3V0Oq0+GRIbdC7aXu/evZPRXOjrjBd8UJen5TQoZiqWSJg3fnE/W//85z9DPy5B7oDGFoh+r9zbF198MVdm+0XR1/qmT5+eq3pSefIzzzzjy0L7wbKsVI5MsNres2eP83lwf190X1OyIxAIIwFiMIRx1DLIZjOFOlKwYEHPP+hJkyZlEAW6CoH0JJDdOnnzJicpnT7mmGM8vyd6I6drpRGbwIYNGyLqzI296Y2W27RpE9m7d699kU8pFQ4GDZQWtTN2qxHakeQROO+883zZf/bZZ7lqNN7vQ5hiF2imiNjPX7SsGbEQCCiB22+/3fM5MbN1Ijt37gQQBEJJgCUS5pceCSYBnc6scRdMdG3LQHNzIf/+978tHQUIQCB8BPr06SNDhgzxNbxVq1YydepU32OHo6xevbqsXr3aU8XgwYNF7cl0+fXXX53YBdu2bROd6r5v375skZQuXVrq1KkjDRo0EPNA6HtuKpZI/Pjjj3LCCSf42qNxDjTmBpJ4Avq5Ue5//vmnp3JdbmOytXj08RSzZ8+W5s2bew7Xr1/fs2TSc1JAFOPHj5err77a1xqTIcSZDq9bJHMJTJs2TYyzVl/4ZkEwL9ac5TO6PBiBQBgJ4GAI46hliM0mlZiYKdRWb88880zRdWpHHnmkpacAAQiEj0CXLl3ixj3o2LGj6M15ouW6666TV1991VOtOi3VeZnp8v3330u5cuVyjUGDdc6dO9f3Oj8HQ4cOHWTixIm+5ydCmV28DbO8TjRwWhDljz/+cAJiajDSvIxDqvs0btw40VgLsVK4cOFDOqtir/n222+lYsWKsWopWrSomDe7osFHgy5mOYeoszSeBPmzGM9m9IkjsH37dlGn99atW61KNZCpBjRFIBBWAjgYwjpyaW73e++9J5dddpnVS7N2WubNmyf69gKBAATCT6Bt27Ziljv5dkQdjGZ6se+xw1HqTAWTm95ThUmDK7feeqtHj+LwCfg5GNS5NGrUqMOvPE4NJt2b6P+MWNEHd5PqMFad72V9W6kP0CtXrnQixOtW/zRjktqujrCxY8fmu12H26A66Z577jlPNTqrQZ1XuRGdTWNSpPpesnjxYqlbt67vsSAp1c7s7lnMshExsRiCZDK25COBq666ypNJRGeEffrpp6JOOQQCoSUQyoUdGJ3WBEx6qohJUedZj/boo4+mdb/pHAQyjYDGWTD/PH3/zHKFpOCYMmWKb3smq0BS2qPSSMQvBsMdd9yRVDQmJanvOF9yySVJbTe7yjWQm3FiRcy054hZKuBrX/T7MGLEiOyqCuyxeIEZzz777FzbbBwtEZOu05fTK6+8kuv6UnGBWeLpa390nE0WiVSYRZsBIKCf4ejnILotXrx4ZO3atQGwDhMgcHgEmMFgvtVIsAjozAWdweCWhg0byscffyy6Lg2BAATSg0DlypXjpqLU9fx+Mw0Ot+e6Nt8ELrTWu2qd3bp18yzJOty2uP7/CZiHSzE3zRaOZKeKjPfm2ATzlIcfftiyJb8KxsEgp5xyijO9X9Mvm9u3uE1resaTTz457vGgHmjSpIlv+tLcpDV1961kyZLy22+/uVXOvskEInfeeadHHzTFL7/8IiawbFyzJkyYIMYpE/c4B9KTgM5eqlGjhvNb4O7h8OHDpXv37m4V+xAIJQEcDKEctvQ12ry1kVtuucXqoOatX758uejDCAIBCKQPAb3x1htwP9H4K/rQnwxRh6VOQXWLBtmaPHmyW8V+ggicfvrp8vXXX1u1JfvByqTX9M0dv3TpUqldu7ZlS34WNNDhUUcd5Xzun3rqKXniiSc8zeuDx4oVKzz6WIU6KLJzUsSen8iymVkg+hcrfs4kPad9+/by1ltvxZ5+yLI6WfyWtCTbQXVIw3J4gga71KU68cZp5MiRYlIR5rA2TksHAvqZaNasmccR17p1a+d/kN/3Kh36TR8yjID50UMgEAgCZu1pxNx4eaaMmQeNQNiHERCAQGIJFCtWzPN9N/+CHZ15QExsY67annzySU+7JtCW6wx2E0nAvLX38NY0ksmUZ555xtOmpn0Lkuzfvz9iAhZ67OzXr98hzfziiy8iOp06+n3J7228pSYmeKavTTfeeOMh++R3golP4Fufmb3gd3ogdUcffbRvH3TMTHDZQNqMUckj8Pjjj3s+D2XLlo2YQI/Ja5SaIZDPBNSrikAg5QTMdNGI33pss1wi5bZhAAQgkBwC8dZX6433J598kpxGTa3mbbrnBs+kW4zomm8k8QRiY+qcdNJJiW8kpkazvMYzxnfffXfMWaktmjfzHhtz+tk3KUR9r80vR4Ofg0G/Pybloq9dOh55EZOq2rc+EyQ0L9Wl5JpKlSr59kHHysxiSYlNNJoaAiYLWsRkP/F8HsyMrtQYRKsQSBIBHAxJAku1uSOgAdZib4xM1OmIWS+du4o4GwIQCAUBk47P8513/wYkO9CVidTtad/kIw8FuyAZuXfv3oiZ8hvXpH379nkeOk0KtrjnJ+pAgwYNPOO7cOHCRFWfkHp0dp77M6/7+iZTHe6HkiA6GHbt2hWJNyvJZG85VJd8j5sMJB5Gyunaa6/1PT+ISpPtwrcP2o/HHnssiCZjUxIIaJBXv4C3YXKWJQELVaYpAWIwmF94JLUEzE2fmKjaokGv3KKBHjWNHQIBCKQfAV2LbqYOx+1YsvPDjxs3Tjp37my1r+UxY8ZYOgr+BHRdvOZqf/311+XII4+UFi1aiAbmjI2VY6LoyxlnnJFViQbqVV3FihWzdIneWbNmjWhqTLfkNcigu45E71955ZUyceJEq9prrrlGXn31VUvnVzDZllL6WTVv5aVDhw6Wafqd1rgqusY8Vh555BG5//77Y9WHLFepUkXMchDPeRoITwPihUE0vsvUqVN9Tf3HP/4hJkOW7zGU6UWgZ8+eMmzYMKtT+juo8VZMVhlLTwECoSeQpo4TuhUSAiY6dMTcfHq8+ybQY0h6gJkQgEBeCHz//fee7735h+rodJp1spcr6Fti8zBs2aAxYPQtLHJoAuYBz2KnY6drzadPn25dHHtefsxe6N27t8c2TU8aJNGZHX6pKseOHRskM3Nli85miX6HY7fmwSpXdUVPjre8IExpZXW2RSyPaDloy3ai3NkmloD+LsYuCdT/cx999FFiG6I2CASEAEskAjIQmWrGzTff7PnHqw4HdTwgEIBA+hLYsGGD57sfvenWaeL5IS+88ILHBs1NjhyaQLzAdXrTbN7KRn7++eeIeTsfMRH0sxjXr18/og/WyRQNnKjL66KfJd3Wq1cvmU3mqe6ZM2daNqqdZnZHZNu2bXmqLygX+a0v176ZrA95MjF2LKPjqkE8wyJ33HGHZ6yj/bj99tvD0g3szCOB7du3RzTuTHTMo9ucBHPNY5NcBoGUE8DBkPIhyFwD3n//fc8Prt6MLliwIHOh0HMIZAiBzz//3PP9j954nXXWWflCQd+4mimqlh0am0H1SPYE4r1Zjo5h7NYsUYj8+uuv2VeagKPq1Iht+913301AzYmt4q677vLY2ahRo8Q2koLa1DkYy1/LZnp4nqyJ57B47bXX8lRfKi56+OGHfZkol5tuuikVJtFmPhLo2LGjZ/xNqtykO1vzsYs0BQEPARwMHiQo8oOABm/0ezOh/4gRCEAg/Qlk52Bo2LBhvgGYMWOGZ+qqTutHsicwadIk32josQ+XmkrxgQceiGiAs2TLxo0bPf9XTJyAZDebp/rPPPNMz0PHgAED8lRXkC7SdK+xnwEt//Wvf821mb///rtvXVpf7FKcXFeejxeYWBFx+8Fy0HwciBQ09Z///Mcz9hoI1cSJSYE1NAmB/CNAkEfznwrJfwLt2rUT81bJatikqRSTmk7MLAZLTwECEEg/Aps2bZIKFSr4dkyDok2ePNn3WDKUZpqymHz0VtUa7DE2CKR1AgVZv369aLBMDUqogfg0uJ8GcTz22GOlatWq8pe//EU6deokZnpw0mkZB4Y0btxYli5dmtWWBhz87LPPxDizs3RB2IkNfBm1yaSwE5OWMVoM5dbEGxAzu8BjuwZs1sDNuRENJHryySf7XhImViauhhgHi28/zEwWMakqfY+hDDcB4/CUGjVqiAY/dYsGeuzRo4dbxT4E0o4ADoa0G9Lgd+jFF18UE3vBMtQEV5Ply5fL6aefbukpQAAC6UnArNF3HkT9enf11Vf7PqT4nZsInXlTKjVr1pSvv/46qzrNjPDpp5+KeSObpWMnPgHzXkR2794tZsaCmDgM8U9M0hH9zIwfP96qXR0fmpUhaPKvf/1L7rzzTsssdcJs3rzZ0oWxYNIuimZGiBWz/EPmzp0bq862rBmm9MVDrJhlE2LWtYveN4RBzHJQx9nmZytZJPyohF+nztbmzZvLnDlzrM5cdNFFTkYRE/DR0lOAQLoRwMGQbiMa8P7oDby+oTFBHC1LTbA1MWsRLR0FCEAgfQnoG2d9iPcTM21YnnvuOb9DSdOtXbtWmjZtKmb5VlYb5cqVc1LhxabjyzqBnZQT0PHSdJkvvfSSZYum/vN70LVOSlFBHzLM0hyrdf3/p/8Hwy46S+Gyyy7zdEPTTep3LDeiDiN1HMWKpkSN5Rd7TpDKH3/8sVx44YW+Jg0cOFBMsD/fYyizJ/DHH3+IWWonq1evFk3bqr/Xp512mtStW1fUCZVKGTx4sPTt29cyQWdUrVq1SsqXL2/pKUAgLQnk32oMWsp0ApoWTtdWmy+S9Wem0WY6GvoPgYwjYN7weGIfRH8b7rnnnpTwMDeqkeOOO876fVKbLr300sg333yTEpto1J+AZlswN/ARTS0a/dxEt0GOobFz507f2BVvv/22f0fjaNetW+f0XVPfpeJPvxN+ov0rWrSoZ0wKFy6c6xSwjz/+uKceHeMnn3zSr+nA6lasWOHbD+2Lmc0SWLuDapimONbsG/ECgOpv+L333hsxToeUdMHMxvW17Y033kiJPTQKgVQQIMhjKqhnaJt+kZSPP/74lP0TyNBhoNsQCAwBM4PB98Y7ryntEtEx84YpYtZ9e+zSYIVhe7BJBI8g1qGZIkqWLOkZI32IfeKJJyLqvAqqvPXWWx679YF8165duTJ5yZIlnnqiDpb82F5yySVx7TUxVHxt++CDD+Je43egS5cuvvWoIzBM8uWXX/r2Q8fJLBlNWlcOHjyYtLpTVbH+Bvs5Ff0+8xpIfOrUqflqqplVETnnnHM843399dfnqx00BoFUE8DBkOoRyJD2zVpKKx969J9BENOHZciQ0E0IpJyACQbouRHT34ZUP8iboFyRW2+91TPDQnOZI6kncP/993s+N5qVYfHixak37hAWdO3a1WO7WTJxiKu8h4PsYDDLmzx91O/13Xff7e1INhoTKNRTjzr/wiZbt2719CN6D2SCpCa8O5rC0ywViJgp+ZGjjz46YuJ9pEXq3fvuu8/D0cQ5iJiAvBG9x3zzzTcjDRo0sM7R2T2axSO/RFlHxza6PfXUUyP6PwWBQCYRIAaD+QVAkktAA3+ZnL9ipnRaDWmgxxEjRlg6ChCAQOYQ0HXZmn0gVp599lkxD/ix6nwv69ppM/NKZs+e7WRISJdAfPkOMsENmrSXojEWVM444wwnQn/v3r3jxvRIcPN5rs7cXDrrr80Ub6uOoUOHSs+ePS3doQrmodWJD3Ko85J1/KyzzpIbbrjBt/pff/1VzEOVmOUS1vE6deqIcYxYungFjbxfpkwZfQlmnaKclFeYRPtiHvR9TTbpNqVly5a+x/KinD9/vpNNRYMMusU8nIsG4Ayr9OnTR4YMGWKZb5ZBOH2KDSqr2X80u01UNKCiZgW67rrroqqkbGfOnCkaX8X9mVXb9P9HvBgcSTGESiEQBAKZ5E2hr6khoHmezWfd+jPZIiIm0GNqDKJVCEAgEARatWpl/S5EfydMwL5A2Bc1Qt9A/vOf/4yYB6qoim0KCWhueZPmLWKyfKTQitw3vWjRIt/Pu8ZTSDfR+BjR73N0ax62Iib7Q466qm/ho9dFtyVKlIjo+vuwiU6bj/YhdqvLJxIpxtHm25bec4VV/GYsZRe7y7zUiphAjxYHk/48smDBgqQh+OWXX3yX1un3AIFAJhJgBoP5tUeSR8CsuRQTDMpqQPOkf/LJJ3LeeedZegoQgEBmEfj73//uGzn/lVdeift2NLMI0dt0IqCzYUx8EatLZmmH7ywe66QQFjSqf8WKFUUj/bvFxKCQ9u3bu1W++8b5KPp23y3KT2evhE1MLAQxD7ges/XttmbTSWTGA50ZqqnAY8UEPrQy5MQeD2pZZ7iZmAZigoRnmWhirciaNWuc2UtZypidefPmyfnnn29pa9SoIWYZlej1iRZNh/v6669b1WrGNOPUSOj4Wg1QgECQCWSiV4U+5w+Bn376KXLiiSdaXmTzXYg8+OCD+WMArUAAAoEmYFK0eX4f9DfCOBgCbTfGQSAvBOrXr+/5vOua7XQVDbip32f3X07iTWzYsCGisx3c15kUhKGe9ejuS3Q/GTFdnn/+eYtbtK2LL744lB8znakQ7UN0e9ddd+WoL2Zprudas0wkR9fm5qSxY8d62ilWrFgkbMFIc9NnzoXAoQgwg8H8YiHJIaBvKd555x2rchOAR+bOnevrzbdOpAABCKQ9gVdffdV3XWxe1qSnPSw6GGoCGnehfPny1vps7VCi1+AHCZLGAWjSpIkzY9Ftl8Y2ady4sVuVta9v+83DsGf2wujRo8VE4s86L0w7v//+u5jlHR6T9Q27zuZMpOibfuU3Y8aMrGqNc0ZmzZolGvMmTKI2t2jRwmOySRksJoilRx+rePnll6Vbt26W2jz4y9dff+18F60DeSxs2rRJdGaExh1xC//D3DTYz0QCOBgycdTzoc8jR46UG2+80WrJpKSTZcuWiU4JRSAAAQj4TWNVKjoNWqdDIxBIFwKjRo0Sk0HC6o4+dP78889pPYV6/fr1UrNmTTFpOLP6XqFCBTFR/8WkEczSRXf8gvmZmRByzz33RE8J3Xbjxo1O0MtYwzXooHn7Has+7LJ5syiTJ0+Wzz77TMwsUmeZqgbMDJNoHzQ4+IoVKyyzTznlFFGeORFdpqP9j5UBAwZI//79Y9W5LquN6gDRII5u0aCd06ZNEw0uiUAgYwkcaooDxyGQWwLGOxzRYEzmS2X96dQ9BAIQgECUwHfffWf9RkR/M7p37x49hS0E0oLAFVdc4fmsX3755WnRt0N1wjgSI+YB1+q/yf4RMbM3si79/PPPI7p8IvobEN3qMouwi3mx4umX9o/lovFHVlPORj8D7q3JEBH/Ip8jxiHhqUdTeJrZNT5n506l6ZTdtum+fs43b96cu4o4GwJpSIAZDOYXAUkcAZ3eqOl49M2kWzTQ4/vvv+9WsQ8BCEBANPWjptxziwbM0uUTCATSgcC+ffvk2GOPtd7ia780GF/sTL906K9fH8x6dNHAjcapaB0uW7ass2RS3za7pVSpUvL444/Lbbfd5laHcl/TF/qlopw0aZJccskloexTso3WNLR+AT1z+5258sorZeLEiR5zD3dp0qpVq8TEVJG9e/dadWugx06dOlk6ChDIRAI4GDJx1JPYZ516ZlIKWS1o9GL9MfabDmmdSAECEMg4AubNrmhkebe0bt1apkyZ4laxD4HQEvB7wNTp0+ZNZ8LWgocBji4Heeqpp+SZZ54Rk6ba1+SiRYuKmcEk9913n6jzIR3kjTfe8H3o3LZtW9r0MdHj1LBhQzFpaD3V6rKPqlWrevTxFLq85t577/UcVsfVv//9b48+Jwp1KqhzQe9r3WJmV8iYMWPcKvYhkLEEcDBk7NAnvuNLliwR/aewf/9+q3IN9NiuXTtLRwECEICAEjDTTD3rq+vVqyeLFi0CEATSgkCvXr1Eg765JRkB/tz1B3lfHQ0aI0BTEK5bt0505qOmItRYDXoP4bduPsj9OZRtzz33nGcmhlki4vT9UNdm4nF1vOgLKQ0SGis7duwQnd2SU9H4CM2bN/ecrg4CjQOSF+ndu7c8/fTT1qUaV2TlypVSunRpS08BAplKAAdDpo58gvutuZzr1KkjZh2lVbNO//TLyWydRAECEMhYAhpRXpdVuaVSpUpOpG+3jn0IhJWABjb+8ssvLfP1Lf7tt99u6SikJwG/mZ1//etf5T//+U9SOmyWc4tmN/j222/lggsuSEobyax03LhxorMBYqVw4cKiy41yI8qgYsWKnkt0pszOnTtzHWBVHRYa2FEZR8WkVBWdpdS0adOoii0EMp4ADoaM/wgkBoBOaXz22WetyipXrizLly/3Tc9knUgBAhDIWAK7d+923vpoerWoaMYZvfkrWLBgVMUWAqEkoG/ozzrrLMt2fSDZsmVL2r2ptzpJIYuA3wwWnZ5/uPEl9DdTUy6uXbvW+tMXPdElKJoWvFGjRlm2hGFHueisj1jRWQ2a7jU3oukj42XQMIEkpW7dujmuTuvSlJTqvHGLZj4ZPHiwW8U+BDKeAA6GjP8IHD4AXSuteZfdog8G+mZSpzsiEIAABLIjoEsidImVW3SJhOoRCISZwJAhQ0QfQNzSoUMH38Bz7nPYTx8CGuBR33C7RVN216pVy63K8f7LL7/sxLL46quvsn2jX7x4cdm+fbsUK1Ysx3UH4cR4gRnPPvtsWbNmTa5M1GUWhQoVsmYcRCt45ZVX5IYbbogWD7m99tpr5bXXXrPOU4eD/q8qUqSIpacAgUwngIMh0z8Bh9l/XUtZvXp1T2RoDfT4yCOPHGbtXA4BCGQCgYceekgefvhhq6sam+Huu++2dBQgEDYC+gASGwxO137rGnAk/QloQMCjjz5a/vjjj6zO6np9nbqfV9G3+7q85uSTTxadxRCbhSdar2ao0EwVYZMmTZrIRx995DFbl3v46T0nxihKliyZNaPDfeif//yn3HnnnW5V3H11LKiDwS26zEJnQWj8EAQCELAJ4GCweVDKJQG/CPD61nH+/PmO1ziX1XE6BCCQgQT0AUwfxNzStm1bee+999wq9iEQKgI6Kyd2Fo6u354xY0ao+oGxeSfw4YcfSrNmzawK9KFWH24PR9RxoQ+4KoMGDZJ+/fp5qstpnA+NJ+COKeCpKIkKzaaif27RmQq67CNW2rdv78k4FHuOX1kdMbokKVbUsf3ggw/Gqj1lzfaiL9J0iYRbNNCjLn9BIAABLwEcDF4maHJIYNSoUdK1a1frbF07vXTpUs+aU+skChCAAARiCMQGwtO3fjpDSterIxAIIwF9y+xOhafTqHVqvD5AIZlBQB9gY2dz6vLRxo0bJwzArFmznMCDsRXqEgqNhZWdaIwQXaqhgbpTIX6zLDS1uWaSiJW8Bg2P57DIiaNHHS+6xEUZu0UzU6ijMNY54j6HfQhkNAHz5UEgkGsC33zzTcRMO9MwutafCfSY67q4AAIQgIDJVW79luhvi3FWAgYCgSNg1nVHPvjgg4hZKx4x2QAi5i21x0YTCC5iUtZZn+lHH33Ucx6K9CZgHAnWZ8Ck4IyYtJwJ7bQJMGi1ob+dJg1mjtows2w818be1yWzbBwMlp3KxjiVfW3q27evdW5OC8aB4ltfly5dDlnFU0895bnWOL8j+v1GIACB+AR0WhQCgVwR0H8Asf809R+QCfSYq3o4GQIQgECUgAmU5bmRM1NQo4fZQiAwBN58803rs2pmJkQ2bNiQZZ/+jzTT4q1zzJKfyP79+7POYSf9CZhMDhGTWtH6HNx6660J7/hFF11ktaH3Y3fccUeO2gmag2HXrl0RE5TS0x/tkzpS8iImRoJvfSamQrbVmaV7EbMMxXPtq6++mu11HIQABCIRlkiYXy0kdwQGDhwo/fv3ty469thjnUBWxjtv6SlAAAIQyCmB008/3Um7Fj2/devWollqEAgEiYDGUYidMj1nzhy58MILxTgRnP+PGqQ0Kk2bNpXJkyeHLpp/1H62eSMwbdo00d8wt8yePVv085Ao0eCRmobRHURS69bPW5s2bQ7ZzA8//CBjxow55HnJOqFSpUqiWVWismPHDjnmmGNEsz/Eii410QDiuZUqVarIF1984blM06sPHz7co1fFvn37pEGDBrJixQrruAZ6HDdunKWjAAEIeAngYPAyQZMNAY2vcN555zk3Ue7T3nrrLdEAPAgEIACBvBLQm70ePXpkXa7rW/XG0Ez3zdKxA4FUE9C0zG7Hlz4wjhw50ok/pIHjoqn0ND2gPhBpmkrzJjvVZtN+PhMwU/Bl9OjRWa1WrVpVPvvss6xyInbUkaBxDNwS1vSU2gd9sI8Gr3T3SfeHDRtm/X+IPR6vrHEozLJez2GNj6HfVz/R76ymmHXLKaecIitXrnSygrj17EMAAl4COBi8TNDEIaBBgOrWreuJ7quBHvXmCoEABCBwOAR2794tmsJNgztGRR0OemOJQCAoBF5//XW55pprsjVHA8M9//zzhwyyl20lHAwtAc1acNppp1kvYzTg52233ZbQPsUGEtXK1QFmYoQktJ38rEwdDOpoiJWcZn2IvU5n1upMjViJl2VDZyNpEEf3LAp1ds+cOdOTESS2TsoQgMD/E8DBwCchxwT0Rj92OplOb1u+fLlonmEEAhCAwOESeOCBB8QEw8uqpkSJEs6yieOPPz5Lxw4EUk1g7Nix8sQTTzgzbHRZxKmnniq1a9eWOnXqOLP8zLr4VJtI+ykkYAISiokZkGWBCfgpmu5Qf88SKerEMPE/rCrz+qbfqiSFBV1y63YyR03p2bOnDB06NFrM8Taew+K1116Tq6++2qpHl2hoyuSNGzda+t69e3tmNFgnUIAABCwCOBgsHBTiEdC1hLqezwQuyTqlYMGCop7e888/P0vHDgQgAIHDIfDjjz86D2vuNcWsez0colybTAIHDhxw3lLrtHQEAkrgyy+/dFI/6oysqDz++ONiMuVEiwnZ6nKLatWqeerS9jWeTVhFH/BNgEWP+SZji/znP//x6LNT6BgcddRRvqdMnz7dSUHpPti5c2dPjIXq1auLCUIcd+mG+3r2IQCB/yeAg4FPwiEJbN++XfQHduvWrda5GuhxwIABlo4CBCAAgcMl4DdbSte8xwZMO9x2uB4CEIBAIgnotPoLLrhA5s2bl1Wtrt1ft25dwoN8aiDRe+65J6sd3VHHgjoYwizqUNbZBbFiMrHIe++9F6vOtqxLVU4++WTfc5YtW+Y4gqIH33jjDenUqVO06Gx19sPChQudWQ3WAQoQgEC2BHAwZIuHg0rgqquukgkTJlgwNBbD/PnzCVxlUaEAAQgkgsDOnTvFpBYTk2s8qzpdR6s37TolGIEABCAQRAL64kUzbblF37rr2/dEiwYX1VmkbkmHmDWPPfaY/OMf/3B3y9lv1KiRzJ0716PPTqHOgXPPPddzikktK/ryLDq7QR0R+iLtl19+sc7VQI+6PAKBAARyRwAHQ+54ZdzZGgFZIyG7RaeCajYJTf2DQAACEEgGAb8Ub/p2Tm8wiceQDOLUCQEIHA6Bfv36yaBBg6wq9OFWX8ZokMBEyq+//irHHXec6BIdt2hwRw3yGGbRWQqXXXaZpwt6z7l27VqPPjvF+PHjPXEW9HxNNTtjxgznUl3626pVq6xytL5mzZo5gR0TPXbR+tlCIJ0J4GBI59E9zL5p4KCaNWuKvk10iwZ61PzBCAQgAIFkErj55pvlxRdftJrQNccTJ06Us846y9JTgAAEIJAKArp89K677hJ9mHVL2bJlZcmSJU5MGbc+Eft+0/k1Laq+lc9NPBBdTqHBSd3xIhJhX07r0BSb77//vnX6rl27HOfJ3r17Lb2metX+5SZQpjp81PETK7q85O6773bUGjiyV69e1ikalFPjQOjyFgQCEMg9ARwMuWeWEVfoOkKdfvfxxx9b/dVAj5p3GYEABCCQbALq3GzYsKEnd7zeYL7wwguHTBWYbPuoHwIQyGwCb7/9trP84ffff7dAFChQQDRuTLKyidxwww2egId5uT/T2ai65DVVog6GSZMmeZrXWRjKL1ZyO0Pjb3/7m7zyyiux1cjq1audAJlr1qyRevXqiTuosJ48btw40VgQCAQgkDcCOBjyxi3tr/Lz+qo3Xj265cqVS/v+00EIQCAYBLZt2+ZMX9WAXG7RtICx6dncx9mHAAQgkGwC999/v2+w66efftrzVjxRtugLII1J89NPP1lV/utf/5I77rjD0h2qEFQHw/PPPy+33nqrx3yddaCzD3IqZ599tmdZhQZ91Pg++/btc+IzaKp1t2jqSr8gk+5z2IcABLIngIMhez4ZeVR/bHXdoP74ukUDPV5xxRVuFfsQgAAEkk5A1xvrG61PP/00qy0cDFko2IEABFJEINbBoMsURo0a5bvuP1EmLliwQM477zxPdZqp4owzzvDos1Po8g5d9poq0aVuOhsjVvQ3X3/jY5fo1qlTx1l2Enu+X3nHjh1SpkwZK726ntezZ0/RZRF9+/aVwYMHW5eq82HlypXOddYBChCAQK4I4GDIFa70P1mniel0Oc2v7BYN9Kj/NBEIQAACqSDw22+/iUZoHzFihOjaXBwMqRgF2oQABNwE3A6GSpUqOW++GzRo4D4l4fsPPPCAPProo1a9lStXlq+++ipLp7O79uzZI1WrVs3ShW3n3nvvlSeeeMIyW5ee6Kw2dRwcSl5//XXPMjpdXqecvvjiC9EgjjobJCoazHH69OlOAMioji0EIJA3AjgY8sYtba9Sz+6wYcOs/lWsWNHx6JYsWdLSU4AABCCQ3wQ2btwojzzyiHOT+c477+R387QHAQhAIIuAPsTqklJ9G96xY0cpWLBg1rFk7ehLIF3a4Jbbb79dnnnmGUelgRA1roAuA9AHZo2nFUb54YcfRO8/Y+MjvPXWW9K+fftDdkkzQ2j/3fLwww/LnXfeKTVq1JBvv/3WfchZ0qJLWxAIQODwCeBgOHyGaVOD/hC3bt3amk6m3mLNs9y4ceO06ScdgQAEIAABCEAAAmEjoG/vNU2vplZ0i6Z2bNu2rRw8eFAuvfRSmTp1quiMisWLF+fobb+7riDt6xIGdd64RQNnahrj7ESdB9p/9wwFjR+mWTM0tsOYMWOsy8855xyHVdGiRS09BQhAIG8EcDDkjVvaXaUeb/XobtmyxeqbpvcZOHCgpaMAAQhAAAIQgAAEIJC/BN58801npoS7VX0RpDEL9OH4uuuuE42Xpakq582bJ7Vq1XKfGrp9dRA0adJEPvnkE8t2zXAW78WXOlk0Zk/s7IXRo0c7XHSmiVuKFCkiCxcudNKyu/XsQwACeSeAgyHv7NLqyk6dOonmVXaL5kbWYEKaexiBAAQgAAEIQAACEEgdAb/AhGrNq6++Ki+//LLMmDHDMU4fpq+//vrUGZrAltevX+88/O/atSur1goVKjhOgRNOOCFLF93p06ePDBkyJFp0thrLoXPnzlK9enXRF2pu0VkSeg0CAQgkjgAOhsSxDG1NOlUs9h+RRkLWNX5hDhAU2gHBcAhAAAIQgAAEIBBD4JprrhGN+xBPNAaEBsLt1q1bvFNCqZ8/f76z9OOXX37Jsl8zZjz77LPSsmVLR6eBG3v06OGZuaDOBXUgtGnTxrO0QmdHzJo1S3QWCAIBCCSOAA6GxLEMZU26Tq1mzZqi6XzcooEe9YcagQAEIAABCEAAAhBIPQFdtqpBJf1EXwyp86Fdu3Z+h0OvW716tWjgxu+++87qS9myZaVQoUKiQSHdUqpUKXn88cfltttuc4KXaxBzt5QuXdoJYK6zIRAIQCCxBHAwJJZnqGrTtW3Nmzd3gji6Ddcf8ClTpoim7EEgAAEIQAACEIAABFJPQF8KaUpKjTPgloYNGzpv88Mec8HdJ7/9n3/+WZ566iknY4amLvYTjUXRvXt3ue+++0SdD2vXrpU6dep4slHo7F1dNoFAAAKJJ4CDIfFMQ1OjX3TeY445RlatWiXly5cPTT8wFAIQgAAEIAABCGQCgW+++UbGjh3rZD2oUqWKXHDBBU4GiUx6KaSOhsmTJ4sui1i3bp3jcNFMEDojV50tJ554ovNR2L9/v5x77rmybNky66OhgR7Hjx9v6ShAAAKJI4CDIXEsQ1XTihUrpEGDBrJv3z7Lbo1QfOWVV1o6ChCAAAQgAAEIQAACEAgTAb8lJSeddJLzIq1MmTJh6gq2QiBUBHAwhGq4EmPs3r17pW7durJmzRqrQg30qJGHEQhAAAIQgAAEIAABCISVgKa21CCOuhw4KjrLY9q0aVmBIaN6thCAQGIJ4GBILM9Q1NarVy8ZOnSoZeupp57qBLvRoDgIBCAAAQhAAAIQgAAEwkhAU1rWqFFDNmzYYJmvgR5j73+tEyhAAAIJIYCDISEYw1PJzJkz5aKLLpJIJJJltKbnmT17tlx44YVZOnYgAAEIQAACEIAABCAQNgJdunTxzMg9++yzZcmSJaLZNhAIQCC5BHAwJJdvoGrX/MHq0d28ebNlV9++feOmPbJOpAABCEAAAhCAAAQgAIGAEpg4caInlliRIkVkwYIFku5ZNgI6JJiVgQRwMGTQoF999dWeqLn6Y6s/uvrji0AAAhCAAAQgAAEIQCCMBL777jupXr26aJYJtwwaNEj0ZRoCAQjkDwEcDPnDOeWtjBs3zpPvV6eJLV68WKpVq5Zy+zAAAhCAAAQgAAEIQAACeSXQpk0bmTp1qnW5pvH88MMPRZcDIxCAQP4QwMGQP5xT2sqmTZscj+6OHTssOzTQjQa8QSAAAQhAAAIQgAAEIBBWAsOHD5cePXpY5mvgck3LXrFiRUtPAQIQSC4BHAzJ5Zvy2jWYY/PmzR3vrduYli1bOql6NGUPAgEIQAACEIAABCAAgTAS+Pzzz6VOnTqyZ88ey3xNva4p2BEIQCB/CeBgyF/e+d7akCFDpE+fPla7ZcqUkVWrVslJJ51k6SlAAAIQgAAEIAABCEAgLAT2798vDRs2dDJEuG2+8sor5c0333Sr2IcABPKJAA6GfAKdimZWrlwpDRo0kL1791rNjx8/Xjp27GjpKEAAAhCAAAQgAAEIQCBMBPr37y8DBw60TC5fvrzzIu2YY46x9BQgAIH8IYCDIX8453sr6lSoX7++8wPrbrxz584yZswYt4p9CEAAAhCAAAQgAAEIhIrA3LlzpUmTJnLw4MEsu3Xp75QpU6RVq1ZZOnYgAIH8JYCDIX9551trvXv3lqefftpqr0KFCqKzGkqXLm3pKUAAAhCAAAQgAAEIQCAsBHbt2iU1a9aU9evXWyZroMdhw4ZZOgoQgED+EsDBkL+886W12bNnS4sWLUQDPEZF0/PMmjXL8fRGdWwhAAEIQAACEIAABCAQNgJdu3aVUaNGWWZXrVrVicVQvHhxS08BAhDIXwI4GPKXd9Jb+/XXX6VGjRqiqSndooEeBw8e7FaxDwEIQAACEIAABCAAgVARePvtt6VDhw6WzYULF5ZPP/3UySZhHaAAAQjkOwEcDPmOPLkNXnvttfLaa69ZjegUsoULF0qRIkUsPQUIQAACEIAABCAAAQiEhcD3338v1atXl23btlkma6DHfv36WToKEIBAagjgYEgN96S0qo4FdTC4pWjRorJ48WI555xz3Gr2IQABCEAAAhCAAAQgECoCl1xyiUyePNmyuXHjxjJnzhzR5cAIBCCQegI4GFI/BgmxYPPmzY5HV5dIuEUDPfbq1cutYh8CEIAABCAAAQhAAAKhIvDss89K9+7dLZtLliwpK1askNNOO83SU4AABFJHAAdD6tgnrGUN5tiyZUsniKO7Ug30OH36dNGUPQgEIAABCEAAAhCAAATCSOCLL75w4ivs3r3bMl8DPXbp0sXSUYAABFJLAAdDavknpHWdpaBpKd1SpkwZJyXlySef7FazDwEIQAACEIAABCAAgdAQOHDggDRs2NBZ8us2WgM9Tpw40a1iHwIQCAABHAwBGITDMWH16tVSr1492bt3r1WNxmO4+uqrLR0FCEAAAhCAAAQgAAEIhInA/fffLwMGDLBMLleunKxatUrKli1r6SlAAAKpJ4CDIfVjkGcL9u3bJ/Xr13dmKrgr0UCP48aNc6vYhwAEIAABCEAAAhCAQKgIzJ8/Xy644AI5ePCgZbcGemzTpo2lowABCASDAA6GYIxDnqzo06ePDBkyxLr2lFNOcRwORx99tKWnAAEIQAACEIAABCAAgbAQ+O2336RWrVry9ddfWyZroMfhw4dbOgoQgEBwCOBgCM5Y5MqSDz/8UDSI459//pl1nQZznDlzpjRr1ixLxw4EIAABCEAAAhCAAATCRuDGG2+UkSNHWmZXqVJFli5dKsWLF7f0FCAAgeAQwMEQnLHIsSU7duyQGjVqyMaNG61rNNBj7IwG6wQKEIAABCAAAQhAAAIQCDiB//73v3L55ZdbVhYuXFh0yUTdunUtPQUIQCBYBHAwBGs8cmRN586dPTEWqlevLosWLZKiRYvmqA5OggAEIAABCEAAAhCAQNAI/PDDD6L3tT/99JNlmgZ67N+/v6WjAAEIBI8ADobgjUm2Fo0fP96THUKdCupc0B9jBAIQgAAEIAABCEAAAmEl0LZtW5k0aZJlfqNGjeSjjz6SggULWnoKEIBA8AjgYAjemMS1aMuWLY4T4ZdffrHO0WURujwCgQAEIAABCEAAAhCAQFgJPP/883Lrrbda5pcoUUJWrFghlSpVsvQUIACBYBLAwRDMcfFYFYlEpFWrVjJjxgzrmAZ01MCOGuARgQAEIAABCEAAAhCAQBgJrFu3TmrXri27d++2zNdAj127drV0FCAAgeASwMEQ3LGxLBs6dKj06tXL0mkqypUrV4qmpkQgAAEIQAACEIAABCAQRgIHDhwQXQahS37dooEe3377bbeKfQhAIOAEcDAEfIDUvE8//VQaN24sBw8etKzV9WmXXHKJpaMAAQhAAAIQgAAEIACBMBHo0aOHDB8+3DL5tNNOc5ZGlCxZ0tJTgAAEgk0AB0Owx0d+//13qVWrlnz11VeWpbfddpv8+9//tnQUIAABCEAAAhCAAAQgECYC06ZNkzZt2oguB46KBnOcM2eOnH/++VEVWwhAICQEcDAEfKBuuukmeemllywrzzzzTFm2bJkceeSRlp4CBCAAAQhAAAIQgAAEwkJg+/btTgDzrVu3WiZrOkpNS4lAAALhI4CDIcBj9t5778lll11mWVioUCGZN2+e1K9f39JTgAAEIAABCEAAAhCAQJgIXHXVVTJhwgTL5Dp16jjLgwsXLmzpKUAAAuEggIMhoOP0448/Oh5d3brl0UcflX/84x9uFfsQgAAEIAABCEAAAhAIFYHRo0dLly5dLJuLFy8uS5culSpVqlh6ChCAQHgI4GAI6FjpzAWdweCWhg0byscffyy6Lg2BAAQgAAEIQAACEIBAGAl8++23UqNGDdm5c6dlvgZ67N69u6WjAAEIhIsADoYAjteIESPklltusSwrUaKELF++XCpXrmzpKUAAAhCAAAQgAAEIQCAsBP78809p1qyZfPTRR5bJrVu3lsmTJ8sRRxxh6SlAAALhIoCDIWDjpdkiNGuEZo9wiwZ67Natm1vFPgQgAAEIQAACEIAABEJFYNCgQdKvXz/L5rJly8qqVaukXLlylp4CBCAQPgI4GAI0ZgcPHnTS8SxYsMCySpdL/Pe//7V0FCAAAQhAAAIQgAAEIBAmAjob99xzz5V9+/ZZZmugxyuuuMLSUYAABMJJAAdDgMbtoYcekocfftiy6IQTTnA8uscdd5ylpwABCEAAAhCAAAQgAIGwEPjjjz+kXr16smbNGstkDfQ4atQoS0cBAhAILwEcDAEZu4ULFzqzFw4cOGBZpIEe27Zta+koQAACEIAABCAAAQhAIEwEevbsKcOGDbNMrlixoqxYsUJKlSpl6SlAAALhJYCDIQBjp/EWateuLV9++aVljQZ6fO655ywdBQhAAAIQgAAEIAABCISJwIwZM6RVq1YSiUSyzC5QoIB8+OGHcsEFF2Tp2IEABMJPAAdDAMbw73//u7zwwguWJWeccYYsW7ZMjjrqKEtPAQIQgAAEIAABCEAAAmEh8Msvv0j16tVly5Ytlska6HHgwIGWjgIEIBB+AjgYUjyGkyZN8iyBKFSokMydO1caNGiQYutoHgIQgAAEIAABCEAAAnkn0KlTJ3njjTesCnTmrgY1L1y4sKWnAAEIhJ8ADoYUjuFPP/3keHR/+OEHywoN9PjAAw9YOgoQgAAEIAABCEAAAhAIE4ExY8bI9ddfb5lcrFgxWbJkiZx99tmWngIEIJAeBHAwpHAc27VrJ++++65lgabu+eSTT0RnMSAQgAAEIAABCEAAAhAII4GNGzdKjRo1ZMeOHZb5GuixR48elo4CBCCQPgRwMKRoLF988UW5+eabrdY13oLmBz799NMtPQUIQAACEIAABCAAAQiEhcCff/4pzZs3lzlz5lgmX3TRRTJ16lQ54ogjLD0FCEAgfQjgYEjBWH799ddSq1Yt+e2336zWNdDjTTfdZOkoQAACEIAABCAAAQhAIEwEBg8eLH379rVMPuaYY2TVqlVSvnx5S08BAhBILwI4GPJ5PA8ePOik45k/f77V8l/+8hfPcgnrhDQqvPPOO/LII4/kuUe6dk9ne+hfiRIlpFKlSs46vmrVqjkxLXJacVDsyKm9nAcBCEAAAhCAAASCTmDFihVOoPJ9+/ZZpmqgx6uuusrSUYAABNKPAA6GfB5TfbB+8MEHrVaPP/54x6Or20yQG2+8UUaOHJmUrmrAoFtuuUW6du16yBSfQbEjKSCoFAIQgAAEIAABCOQzgb1790q9evVk9erVVssa6HH06NGWjgIEIJCeBHAw5OO4Llq0SBo1aiQHDhywWtVAjzqDIVNEs2Zs2rRJNm/eLGPHjpWJEycmvOuab/m9996TU089NW7dQbEjroEcgAAEIAABCEAAAiEi0KtXLxk6dKhlsd6LrVy5UkqVKmXpKUAAAulJAAdDPo3r7t27RXP+rlu3zmpRAz2OGDHC0mVaQSMJDx8+3LfbHTp0cPjs3LlTNK2n/v34448yd+5cmTBhgqI5tTsAABWMSURBVKg+npxwwglORo6cBs0Mih3x+oMeAhCAAAQgAAEIBJXAzJkzRYM4RiKRLBMLFCggs2fPlgsvvDBLxw4EIJDeBHAw5NP43nrrrfL8889bremDr2aN0FgCmSzqNIi3PESDXmrwSz/Zs2ePM/tB2cYGzIyef/HFF8sHH3wQLWa7DYod2RrJQQhAAAIQgAAEIBAwAr/++qsTB0tnp7pFAz0OGjTIrWIfAhBIcwI4GPJhgPUB99JLL7VaKliwoPN2/bzzzrP0mVooW7asbN++3dP97BwM0ZOnT5/u8N2/f39UZW2nTJkirVu3tnTxCkGxI5596CEAAQhAAAIQgEDQCFxzzTXy+uuvW2ZpxrQFCxZIkSJFLD0FCEAgvQngYEjy+G7bts3x6H7//fdWSxro8aGHHrJ0mVw45ZRTnJgMsQxy4mDQa+655x558sknYy93yn369BFNl5QTCYodObGVcyAAAQhAAAIQgECqCYwbN046d+5smaEZvxYvXiya4QuBAAQyiwAOhiSPd/v27UXTIbqlQYMGTgyBQoUKudUZvX/GGWfIV1995WGQUwfDf//7X7n88ss916tCZ4+8//77vsdilUGxI9YuyhCAAAQgAAEIQCBoBDRod40aNUSXSLhFAz327NnTrWIfAhDIEAI4GJI40JqKUVMhuuXII4+UZcuWyZlnnulWZ/y+erg/++wzD4ecOhj02nhe8nPOOcdJA+qp3EcRFDt8TEMFAQhAAAIQgAAEAkNAgzm2aNHCCeLoNqply5Yybdo0OeKII9xq9iEAgQwhgIMhSQP9zTffSM2aNT3BBzXQ49///vcktRreatUJsGbNGk8HcupgmDRpkrRt29ZzvSqaNGkiH374oe+xWGVQ7Ii1izIEIAABCEAAAhAIEoEhQ4aILkN1S5kyZZyXOieddJJbzT4EIJBBBHAwJGGwDx486KTjmTdvnlV7bqbqWxdmQOFwH+w1SnG8OAt/+9vf5OWXX84RxaDYkSNjOQkCEIAABCAAAQikgMCqVaukfv36snfvXqt1DfTYqVMnS0cBAhDILAI4GJIw3gMGDJD777/fqvm4445zPLonnHCCpafw/wQO58Fegwg1btzY808uynby5MnSpk2baDHbbVDsyNZIDkIAAhCAAAQgAIEUEVCngjoX1MngFg30OGbMGLeKfQhAIAMJ4GBI8KAvWbJEGjZsKLEpEzXQY7t27RLcWvpUl9cHew0upM6FjRs3+sLQsYidSeJ74v+UQbEjOxs5BgEIQAACEIAABFJFoHfv3vL0009bzVeoUEFWrlwppUuXtvQUIACBzCOAgyGBY75nzx6pU6eOfP7551atGujxxRdftHQUbAK5fbBXx8KgQYNEA2nGTs+L1qyBND/55BPR2SM5laDYkVN7OQ8CEIAABCAAAQjkF4HZs2c7gR01wGNUChQoIDNnzpSmTZtGVWwhAIEMJoCDIYGD3717d3n22WetGitXrizLly+XEiVKWHoKNoF4D/aNGjWSv/71r7Jz507ZvHmz86fOBfWS79u3z67kfyX9R3frrbfKwIEDpVSpUr7nxFMGxY549qGHAAQgAAEIQAACqSCgqSg1JaXeh7lFAz3Gi4PlPo99CEAgMwjgYEjQOE+ZMkUuvvhiq7aCBQvKxx9/7CyZsA5Q8BCI92DvOfEQCnUsaMDHU0899RBn+h8Oih3+1qGFAAQgAAEIQAACqSFw7bXXymuvvWY1rg6HRYsWSZEiRSw9BQhAIHMJ4GBIwNj//PPPUr16dfnuu++s2jTQ4yOPPGLpKPgTSNSDvdZeu3Zt6dChg3Tr1k3KlSvn32AcbVDsiGMeaghAAAIQgAAEIJDvBDQ7xDXXXGO1W7RoUdFA23rvhEAAAhCIEsDBECVxGNsrrrhC3nrrLauGevXqyfz586VQoUKWnoI/gXgP9qpv27at6GyQn376SbZu3er8aVDHbdu2+Vf2P60uj3jsscfktttuE102kRMJih05sZVzIAABCEAAAhCAQLIJ6BJVfZGmSyTcooEee/Xq5VaxDwEIQEBwMBzmh2DUqFHStWtXq5YjjzxSli5dKmeddZalpxCfQLwH+5tuukleeOEFz4UaXEgDCj333HPy7rvvyoEDBzznRBUaw2H06NFyxBFHRFVxt0GxI66BHIAABCAAAQhAAAL5REDvt1q2bCmzZs2yWmzevLnMmDEjR/dW1oUUIACBtCeAg+Ewhnj9+vVSs2ZN2bVrl1WLBnrUWABIzgnk9sHeXbMGG2rdurWsXbvWrbb2+/Xr5wR9tJQ+haDY4WMaKghAAAIQgAAEIJCvBHSWgqaldMvRRx8tq1atkpNPPtmtZh8CEICAQwAHQx4/CH/++ac0adLESYPorkIDPX7wwQduFfs5IHA4D/Za/ZYtW6Rx48ayYcMG39Z0naAeO/HEE32PR5VBsSNqD1sIQAACEIAABCCQCgKrV68WXfIbmw781Vdf9cRjSIV9tAkBCASTAA6GPI6LpkDs37+/dfWxxx7reHQP9RBrXUTBIXC4D/ZaiQYaql+/flyiGo/hvvvui3tcDwTFjmyN5CAEIAABCEAAAhBIIgFNBd6gQQNZsWKF1Ypmkhg3bpylowABCEDATQAHg5tGDvc1vsJ5550n+/fvt67QQI/t27e3dBRyRiARD/a6TrBs2bLyyy+/+Daak3+KQbHDtwMoIQABCEAAAhCAQD4Q6NOnjwwZMsRq6ZRTTpGVK1eKLpFAIAABCMQjgIMhHpk4+j179kjdunU96/010OPIkSPjXIX6UAQS8WCvbWgshmnTpvk216hRI5k7d67vsagyKHZE7WELAQhAAAIQgAAE8pPAnDlzRIM46nLgqGigbA2u3axZs6iKLQQgAAFfAjgYfLHEV/bo0UOGDx9unVCpUiVZvny5lCxZ0tJTyDmBatWqyWeffea5IF4WCc+J/1NcdNFFTlRjv+M5cTAExQ4/+9FBAAIQgAAEIACBZBLYsWOH1KhRQzQduFs00GPsjAb3cfYhAAEIRAngYIiSyMFW34y3adNGdCp+VAoWLCjq6T3//POjKrZ5IHDaaac5QRhjL82tg0HjYPz888+x1Tjljh07yvjx432PRZVBsSNqD1sIQAACEIAABCCQXwQ6d+7sibFQvXp1WbRokWjAbAQCEIDAoQjgYDgUof8d3759u+gP7NatW60rNNDjgAEDLB2F3BPQ9XzqNY+V3DgYJk2aJG3bto2tIqus4xQbmDPr4P92gmJHrF2UIQABCEAAAhCAQDIJvPHGG9KpUyerCXUqLFy40JnVYB2gAAEIQCAOARwMccDEqq+66iqZMGGCpdZYDPPnz5fChQtbegq5I6Br/AoVKmTNDInWkFMHw3fffSc1a9aUn376KXqptS1QoICsX79eKlSoYOndhaDY4baJfQhAAAIQgAAEIJBsApruW1+kxQbK1mURujwCgQAEIJBTAjgYckBq9OjR0qVLF+vM4sWLi2aTqFKliqWnkHsCmgKpVq1avhfmxMEwb948uf3222XZsmW+daiyZ8+eMnTo0LjH9UBQ7MjWSA5CAAIQgAAEIACBBBLQpb+tWrXyxLDSgI4a2FEDPCIQgAAEckoAB8MhSG3YsMF5M75z507rTA302L17d0tHIW8EdNnCwIEDfS/WwIy9evWSypUriwbTLF26tOzatUu+/fZb+eabb+Sll16S9957z/faqLJFixYyefLkQ840CYodUbvZQgACEIAABCAAgWQT0Bcweq/lFr3fWrVqlWhqSgQCEIBAbgjgYMiGlk6Zb9q0qXz88cfWWRroUR9YkbwT+OOPP2TTpk0yYsQIZ2bBwYMHc1RZsWLFRK/NiRQpUsT5h/nYY4+JBuP0k6DY4WcbOghAAAIQgAAEIJBMAmvWrJF69ep57q3GjRsn1157bTKbpm4IQCBNCeBgyGZgBw0aJP369bPOKFu2rOPRLVeunKWnkHMCd9xxhzzzzDM5vyCXZ+o/yhtuuEGuueYa0fGKJ0GxI5596CEAAQhAAAIQgECyCOzbt0/OPfdcJ9W6u42rr75aXnvtNbeKfQhAAAI5JoCDIQ6q5cuXOz+6+uPrlokTJ0qHDh3cKvZzSeDGG2+UkSNH5vIq+/RSpUrJiSeeaP2VL1/eySJRrVo1++Q4paDYEcc81BCAAAQgAAEIQCBpBPr27SuDBw+26j/55JNl5cqVUqZMGUtPAQIQgEBOCeBg8CGl0+Y1Q8Rnn31mHdVAj6NGjbJ0FCAAAQhAAAIQgAAEIBAmAh999JFoEEddDhwVDeY4ffp00dhVCAQgAIG8EsDB4ENOMw4MGzbMOlKxYkXHo1uyZElLTwECEIAABCAAAQhAAAJhIaCBy2vUqOEEzHbbrIEen376abeKfQhAAAK5JoCDIQaZem5bt24tmrInKgUKFJA5c+ZI48aNoyq2EIAABCAAAQhAAAIQCB2B66+/XsaMGWPZfc4558jixYulaNGilp4CBCAAgdwSwMHgIrZ9+3bHo7tlyxaXVpxAj/HSKFonUoAABCAAAQhAAAIQgEBACbz55pvSsWNHyzrNurVw4UInLbt1gAIEIACBPBDAweCC1qlTJ3njjTdcGpHatWvLggULpHDhwpaeAgQgAAEIQAACEIAABMJCYOvWrVK9enXRF2pu0UCPffr0cavYhwAEIJBnAjgY/odOp4rplDG3FCtWTJYuXSpVq1Z1q9mHAAQgAAEIQAACEIBAaAjo0t82bdrItGnTLJubNGkis2bNEl0OjEAAAhBIBAEcDIbit99+60wL27Fjh8VUAz326NHD0lGAAAQgAAEIQAACEIBAmAjoPa0GMXdL6dKlnQDmFSpUcKvZhwAEIHBYBDLewaDpeZo3b+4EcXSTbNWqlUyZMkU0ZQ8CAQhAAAIQgAAEIACBMBJYu3at1KlTRzQNu1t09m7nzp3dKvYhAAEIHDaBjHcw6Lqzvn37WiCPOeYYWbVqlZQvX97SU4AABCAAAQhAAAIQgEBYCOzfv1/OPfdcWbZsmWWyBnocP368paMAAQhAIBEEMtrBsGLFCmnQoIHs27fPYqkRdq+88kpLRwECEIAABCAAAQhAAAJhItCvXz8ZNGiQZfJJJ53kvEgrU6aMpacAAQhAIBEEMtbBsHfvXqlbt66sWbPG4qiBHkePHm3pKEAAAhCAAAQgAAEIQCBMBD755BPRII66HDgquvR36tSpctFFF0VVbCEAAQgklEDGOhh69eolQ4cOtWAWKlTI0WnQGwQCEIAABCAAAQhAAAJhJXD//ffLhg0bLPM10GPs/a91AgUIQAACh0kgIx0Mc+bMkWbNmomm7EEgAAEIQAACEIAABCCQ7gTOPvtsWbJkiWgadgQCEIBAsghkpIPhqquukgkTJiSLKfVCAAIQgAAEIAABCEAgMASKFCkiCxYskFq1agXGJgyBAATSk0BGOhi6desmL7/8cnqOKL2CAAQgAAEIQAACEICAi4AGeozNmuY6zC4EIACBhBHISAeDrkdr3bq1rFu3LmEgqQgCEIAABCAAAQhAAAJBI9C5c2cngHmBAgWCZhr2QAACaUggIx0MOo4aUXfz5s2i+YERCEAAAhCAAAQgAAEIpBuBUqVKyXHHHZdu3aI/EIBAgAlkrIMhwGOCaRCAAAQgAAEIQAACEIAABCAAgdARwMEQuiHDYAhAAAIQgAAEIAABCEAAAhCAQPAI4GAI3phgEQQgAAEIQAACEIAABCAAAQhAIHQEcDCEbsgwGAIQgAAEIAABCEAAAhCAAAQgEDwCOBiCNyZYBAEIQAACEIAABCAAAQhAAAIQCB0BHAyhGzIMhgAEIAABCEAAAhCAAAQgAAEIBI8ADobgjQkWQQACEIAABCAAAQhAAAIQgAAEQkcAB0PohgyDIQABCEAAAhCAAAQgAAEIQAACwSOAgyF4Y4JFEIAABCAAAQhAAAIQgAAEIACB0BHAwRC6IcNgCEAAAhCAAAQgAAEIQAACEIBA8AjgYAjemGARBCAAAQhAAAIQgAAEIAABCEAgdARwMIRuyDAYAhCAAAQgAAEIQAACEIAABCAQPAI4GII3JlgEAQhAAAIQgAAEIAABCEAAAhAIHQEcDKEbMgyGAAQgAAEIQAACEIAABCAAAQgEjwAOhuCNCRZBAAIQgAAEIAABCEAAAhCAAARCRwAHQ+iGDIMhAAEIQAACEIAABCAAAQhAAALBI4CDIXhjgkUQgAAEIAABCEAAAhCAAAQgAIHQEcDBELohw2AIQAACEIAABCAAAQhAAAIQgEDwCOBgCN6YYBEEIAABCEAAAhCAAAQgAAEIQCB0BHAwhG7IMBgCEIAABCAAAQhAAAIQgAAEIBA8AjgYgjcmWAQBCEAAAhCAAAQgAAEIQAACEAgdARwMoRsyDIYABCAAAQhAAAIQgAAEIAABCASPAA6G4I0JFkEAAhCAAAQgAAEIQAACEIAABEJHAAdD6IYMgyEAAQhAAAIQgAAEIAABCEAAAsEjgIMheGOCRRCAAAQgAAEIQAACEIAABCAAgdARwMEQuiHDYAhAAAIQgAAEIAABCEAAAhCAQPAI4GAI3phgEQQgAAEIQAACEIAABCAAAQhAIHQEcDCEbsgwGAIQgAAEIAABCEAAAhCAAAQgEDwCOBiCNyZYBAEIQAACEIAABCAAAQhAAAIQCB0BHAyhGzIMhgAEIAABCEAAAhCAAAQgAAEIBI8ADobgjQkWQQACEIAABCAAAQhAAAIQgAAEQkcAB0PohgyDIQABCEAAAhCAAAQgAAEIQAACwSOAgyF4Y4JFEIAABCAAAQhAAAIQgAAEIACB0BHAwRC6IcNgCEAAAhCAAAQgAAEIQAACEIBA8AjgYAjemGARBCAAAQhAAAIQgAAEIAABCEAgdARwMIRuyDAYAhCAAAQgAAEIQAACEIAABCAQPAI4GII3JlgEAQhAAAIQgAAEIAABCEAAAhAIHQEcDKEbMgyGAAQgAAEIQAACEIAABCAAAQgEjwAOhuCNCRZBAAIQgAAEIAABCEAAAhCAAARCRwAHQ+iGDIMhAAEIQAACEIAABCAAAQhAAALBI4CDIXhjgkUQgAAEIAABCEAAAhCAAAQgAIHQEcDBELohw2AIQAACEIAABCAAAQhAAAIQgEDwCOBgCN6YYBEEIAABCEAAAhCAAAQgAAEIQCB0BHAwhG7IMBgCEIAABCAAAQhAAAIQgAAEIBA8AjgYgjcmWAQBCEAAAhCAAAQgAAEIQAACEAgdARwMoRsyDIYABCAAAQhAAAIQgAAEIAABCASPAA6G4I0JFkEAAhCAAAQgAAEIQAACEIAABEJHAAdD6IYMgyEAAQhAAAIQgAAEIAABCEAAAsEj8H8SBKBZXyXFJwAAAABJRU5ErkJggg==;" vertex="1" parent="1">
          <mxGeometry x="290" y="110" width="240.37" height="100" as="geometry" />
        </mxCell>
        <mxCell id="XbhTVfDhAKL3dcxU-6Rh-2" value="Начало" style="rounded=1;whiteSpace=wrap;html=1;arcSize=50;" vertex="1" parent="1">
          <mxGeometry x="380" y="30" width="80" height="40" as="geometry" />
        </mxCell>
        <mxCell id="XbhTVfDhAKL3dcxU-6Rh-7" value="" style="endArrow=classic;html=1;rounded=0;" edge="1" parent="1">
          <mxGeometry width="50" height="50" relative="1" as="geometry">
            <mxPoint x="420" y="70" as="sourcePoint" />
            <mxPoint x="419.7" y="120" as="targetPoint" />
          </mxGeometry>
        </mxCell>
        <mxCell id="XbhTVfDhAKL3dcxU-6Rh-18" value="" style="endArrow=classic;html=1;rounded=0;entryX=0.5;entryY=0;entryDx=0;entryDy=0;" edge="1" parent="1" target="XbhTVfDhAKL3dcxU-6Rh-19">
          <mxGeometry width="50" height="50" relative="1" as="geometry">
            <mxPoint x="413" y="200" as="sourcePoint" />
            <mxPoint x="413" y="260" as="targetPoint" />
          </mxGeometry>
        </mxCell>
        <mxCell id="XbhTVfDhAKL3dcxU-6Rh-21" style="edgeStyle=orthogonalEdgeStyle;rounded=0;orthogonalLoop=1;jettySize=auto;html=1;exitX=0.5;exitY=1;exitDx=0;exitDy=0;entryX=0.5;entryY=0;entryDx=0;entryDy=0;" edge="1" parent="1" source="XbhTVfDhAKL3dcxU-6Rh-19" target="XbhTVfDhAKL3dcxU-6Rh-20">
          <mxGeometry relative="1" as="geometry" />
        </mxCell>
        <mxCell id="XbhTVfDhAKL3dcxU-6Rh-19" value="count = 0" style="rounded=0;whiteSpace=wrap;html=1;" vertex="1" parent="1">
          <mxGeometry x="380" y="230" width="66" height="30" as="geometry" />
        </mxCell>
        <mxCell id="XbhTVfDhAKL3dcxU-6Rh-23" style="edgeStyle=orthogonalEdgeStyle;rounded=0;orthogonalLoop=1;jettySize=auto;html=1;exitX=0.5;exitY=1;exitDx=0;exitDy=0;entryX=0.5;entryY=0;entryDx=0;entryDy=0;" edge="1" parent="1" source="XbhTVfDhAKL3dcxU-6Rh-20" target="XbhTVfDhAKL3dcxU-6Rh-22">
          <mxGeometry relative="1" as="geometry" />
        </mxCell>
        <mxCell id="XbhTVfDhAKL3dcxU-6Rh-20" value="i = 0, N - 1" style="shape=hexagon;perimeter=hexagonPerimeter2;whiteSpace=wrap;html=1;fixedSize=1;" vertex="1" parent="1">
          <mxGeometry x="363" y="280" width="100" height="40" as="geometry" />
        </mxCell>
        <mxCell id="XbhTVfDhAKL3dcxU-6Rh-29" style="edgeStyle=orthogonalEdgeStyle;rounded=0;orthogonalLoop=1;jettySize=auto;html=1;exitX=0.5;exitY=1;exitDx=0;exitDy=0;entryX=0.5;entryY=0;entryDx=0;entryDy=0;" edge="1" parent="1" source="XbhTVfDhAKL3dcxU-6Rh-22" target="XbhTVfDhAKL3dcxU-6Rh-24">
          <mxGeometry relative="1" as="geometry" />
        </mxCell>
        <mxCell id="XbhTVfDhAKL3dcxU-6Rh-22" value="j = 0, M - 1" style="shape=hexagon;perimeter=hexagonPerimeter2;whiteSpace=wrap;html=1;fixedSize=1;" vertex="1" parent="1">
          <mxGeometry x="363" y="350" width="100" height="40" as="geometry" />
        </mxCell>
        <mxCell id="XbhTVfDhAKL3dcxU-6Rh-27" style="edgeStyle=orthogonalEdgeStyle;rounded=0;orthogonalLoop=1;jettySize=auto;html=1;exitX=1;exitY=0.5;exitDx=0;exitDy=0;entryX=0;entryY=0.5;entryDx=0;entryDy=0;" edge="1" parent="1" source="XbhTVfDhAKL3dcxU-6Rh-24" target="XbhTVfDhAKL3dcxU-6Rh-25">
          <mxGeometry relative="1" as="geometry" />
        </mxCell>
        <mxCell id="XbhTVfDhAKL3dcxU-6Rh-31" style="edgeStyle=orthogonalEdgeStyle;rounded=0;orthogonalLoop=1;jettySize=auto;html=1;exitX=0.5;exitY=1;exitDx=0;exitDy=0;entryX=0.5;entryY=0;entryDx=0;entryDy=0;" edge="1" parent="1" source="XbhTVfDhAKL3dcxU-6Rh-24" target="XbhTVfDhAKL3dcxU-6Rh-30">
          <mxGeometry relative="1" as="geometry" />
        </mxCell>
        <mxCell id="XbhTVfDhAKL3dcxU-6Rh-24" value="xij != 0 и j = M" style="rhombus;whiteSpace=wrap;html=1;" vertex="1" parent="1">
          <mxGeometry x="339" y="410" width="149.81" height="60" as="geometry" />
        </mxCell>
        <mxCell id="XbhTVfDhAKL3dcxU-6Rh-28" style="edgeStyle=orthogonalEdgeStyle;rounded=0;orthogonalLoop=1;jettySize=auto;html=1;exitX=0.5;exitY=1;exitDx=0;exitDy=0;entryX=0.5;entryY=0;entryDx=0;entryDy=0;" edge="1" parent="1" source="XbhTVfDhAKL3dcxU-6Rh-25" target="XbhTVfDhAKL3dcxU-6Rh-26">
          <mxGeometry relative="1" as="geometry" />
        </mxCell>
        <mxCell id="XbhTVfDhAKL3dcxU-6Rh-25" value="count = count + 1" style="rounded=0;whiteSpace=wrap;html=1;" vertex="1" parent="1">
          <mxGeometry x="510" y="420" width="130" height="40" as="geometry" />
        </mxCell>
        <mxCell id="XbhTVfDhAKL3dcxU-6Rh-26" value="Вывод &quot;&lt;span style=&quot;white-space: pre;&quot;&gt;в строке нет нулевых элементов&lt;/span&gt;&quot;" style="shape=parallelogram;perimeter=parallelogramPerimeter;whiteSpace=wrap;html=1;fixedSize=1;" vertex="1" parent="1">
          <mxGeometry x="430" y="480" width="290" height="30" as="geometry" />
        </mxCell>
        <mxCell id="XbhTVfDhAKL3dcxU-6Rh-50" style="edgeStyle=orthogonalEdgeStyle;rounded=0;orthogonalLoop=1;jettySize=auto;html=1;exitX=0.5;exitY=1;exitDx=0;exitDy=0;" edge="1" parent="1" source="XbhTVfDhAKL3dcxU-6Rh-30" target="XbhTVfDhAKL3dcxU-6Rh-48">
          <mxGeometry relative="1" as="geometry" />
        </mxCell>
        <mxCell id="XbhTVfDhAKL3dcxU-6Rh-30" value="j" style="ellipse;whiteSpace=wrap;html=1;aspect=fixed;" vertex="1" parent="1">
          <mxGeometry x="398.9" y="550" width="30" height="30" as="geometry" />
        </mxCell>
        <mxCell id="XbhTVfDhAKL3dcxU-6Rh-46" value="" style="endArrow=classic;html=1;rounded=0;exitX=0.5;exitY=1;exitDx=0;exitDy=0;" edge="1" parent="1" source="XbhTVfDhAKL3dcxU-6Rh-26">
          <mxGeometry width="50" height="50" relative="1" as="geometry">
            <mxPoint x="520" y="550" as="sourcePoint" />
            <mxPoint x="414" y="530" as="targetPoint" />
            <Array as="points">
              <mxPoint x="575" y="530" />
            </Array>
          </mxGeometry>
        </mxCell>
        <mxCell id="XbhTVfDhAKL3dcxU-6Rh-47" value="" style="endArrow=classic;html=1;rounded=0;entryX=0;entryY=0.5;entryDx=0;entryDy=0;exitX=0;exitY=0.5;exitDx=0;exitDy=0;" edge="1" parent="1" source="XbhTVfDhAKL3dcxU-6Rh-30" target="XbhTVfDhAKL3dcxU-6Rh-22">
          <mxGeometry width="50" height="50" relative="1" as="geometry">
            <mxPoint x="200" y="460" as="sourcePoint" />
            <mxPoint x="250" y="410" as="targetPoint" />
            <Array as="points">
              <mxPoint x="320" y="565" />
              <mxPoint x="320" y="370" />
            </Array>
          </mxGeometry>
        </mxCell>
        <mxCell id="XbhTVfDhAKL3dcxU-6Rh-53" style="edgeStyle=orthogonalEdgeStyle;rounded=0;orthogonalLoop=1;jettySize=auto;html=1;exitX=0.5;exitY=1;exitDx=0;exitDy=0;entryX=0.5;entryY=0;entryDx=0;entryDy=0;" edge="1" parent="1" source="XbhTVfDhAKL3dcxU-6Rh-48" target="XbhTVfDhAKL3dcxU-6Rh-52">
          <mxGeometry relative="1" as="geometry" />
        </mxCell>
        <mxCell id="XbhTVfDhAKL3dcxU-6Rh-48" value="i" style="ellipse;whiteSpace=wrap;html=1;aspect=fixed;" vertex="1" parent="1">
          <mxGeometry x="399" y="600" width="30" height="30" as="geometry" />
        </mxCell>
        <mxCell id="XbhTVfDhAKL3dcxU-6Rh-51" value="" style="endArrow=classic;html=1;rounded=0;entryX=0;entryY=0.5;entryDx=0;entryDy=0;exitX=0;exitY=0.5;exitDx=0;exitDy=0;" edge="1" parent="1" source="XbhTVfDhAKL3dcxU-6Rh-48" target="XbhTVfDhAKL3dcxU-6Rh-20">
          <mxGeometry width="50" height="50" relative="1" as="geometry">
            <mxPoint x="70" y="510" as="sourcePoint" />
            <mxPoint x="360" y="310" as="targetPoint" />
            <Array as="points">
              <mxPoint x="300" y="615" />
              <mxPoint x="300" y="300" />
            </Array>
          </mxGeometry>
        </mxCell>
        <mxCell id="XbhTVfDhAKL3dcxU-6Rh-55" style="edgeStyle=orthogonalEdgeStyle;rounded=0;orthogonalLoop=1;jettySize=auto;html=1;exitX=1;exitY=0.5;exitDx=0;exitDy=0;" edge="1" parent="1" source="XbhTVfDhAKL3dcxU-6Rh-52" target="XbhTVfDhAKL3dcxU-6Rh-54">
          <mxGeometry relative="1" as="geometry" />
        </mxCell>
        <mxCell id="XbhTVfDhAKL3dcxU-6Rh-57" style="edgeStyle=orthogonalEdgeStyle;rounded=0;orthogonalLoop=1;jettySize=auto;html=1;exitX=0.5;exitY=1;exitDx=0;exitDy=0;entryX=0.5;entryY=0;entryDx=0;entryDy=0;" edge="1" parent="1" source="XbhTVfDhAKL3dcxU-6Rh-52" target="XbhTVfDhAKL3dcxU-6Rh-56">
          <mxGeometry relative="1" as="geometry" />
        </mxCell>
        <mxCell id="XbhTVfDhAKL3dcxU-6Rh-52" value="count = 0" style="rhombus;whiteSpace=wrap;html=1;" vertex="1" parent="1">
          <mxGeometry x="364" y="660" width="100" height="50" as="geometry" />
        </mxCell>
        <mxCell id="XbhTVfDhAKL3dcxU-6Rh-54" value="Вывод: нет строк без нулевых элементов" style="shape=parallelogram;perimeter=parallelogramPerimeter;whiteSpace=wrap;html=1;fixedSize=1;" vertex="1" parent="1">
          <mxGeometry x="488.81" y="665" width="170" height="40" as="geometry" />
        </mxCell>
        <mxCell id="XbhTVfDhAKL3dcxU-6Rh-56" value="Конец" style="rounded=1;whiteSpace=wrap;html=1;arcSize=50;" vertex="1" parent="1">
          <mxGeometry x="373.9" y="750" width="80" height="40" as="geometry" />
        </mxCell>
        <mxCell id="XbhTVfDhAKL3dcxU-6Rh-58" value="" style="endArrow=classic;html=1;rounded=0;exitX=0.5;exitY=1;exitDx=0;exitDy=0;" edge="1" parent="1">
          <mxGeometry width="50" height="50" relative="1" as="geometry">
            <mxPoint x="575" y="705" as="sourcePoint" />
            <mxPoint x="414" y="725" as="targetPoint" />
            <Array as="points">
              <mxPoint x="575" y="725" />
            </Array>
          </mxGeometry>
        </mxCell>
      </root>
    </mxGraphModel>
  </diagram>
</mxfile>
